<mxfile host="app.diagrams.net" modified="2021-05-04T13:17:42.652Z" agent="5.0 (Windows)" etag="rR1pP_ECkdizGSjDna-p" version="14.4.4" type="github">
  <diagram name="Page-1" id="ad52d381-51e7-2e0d-a935-2d0ddd2fd229">
    <mxGraphModel dx="4392" dy="2684" grid="1" gridSize="10" guides="1" tooltips="1" connect="1" arrows="1" fold="1" page="1" pageScale="1" pageWidth="1100" pageHeight="850" background="#ffffff" math="0" shadow="0">
      <root>
        <mxCell id="0" />
        <mxCell id="1" parent="0" />
        <mxCell id="9Zyja6iba0x6Raa5amca-242" value="" style="rounded=1;whiteSpace=wrap;html=1;strokeColor=#000000;strokeWidth=5;fillColor=none;fontFamily=Verdana;fontSize=12;fontColor=#000000;dashed=1;" vertex="1" parent="1">
          <mxGeometry x="2320" y="-33.25" width="570" height="491.5" as="geometry" />
        </mxCell>
        <mxCell id="9Zyja6iba0x6Raa5amca-169" value="" style="ellipse;whiteSpace=wrap;html=1;fontFamily=Verdana;fontSize=12;fontColor=#000000;rotation=-15;fillColor=none;strokeColor=#000000;dashed=1;strokeWidth=3;" vertex="1" parent="1">
          <mxGeometry x="362" y="1217.31" width="691.25" height="313.25" as="geometry" />
        </mxCell>
        <mxCell id="9Zyja6iba0x6Raa5amca-168" value="&lt;div&gt;Gr33a&lt;/div&gt;&lt;div&gt;(mainly labella, also maletarsi)&lt;br&gt;&lt;/div&gt;" style="ellipse;whiteSpace=wrap;html=1;rounded=1;shadow=1;comic=0;labelBackgroundColor=none;strokeWidth=2;fontFamily=Verdana;fontSize=12;align=center;gradientColor=#ea6b66;fillColor=#f8cecc;strokeColor=#b85450;" vertex="1" parent="1">
          <mxGeometry x="406.75" y="1413.81" width="140" height="80" as="geometry" />
        </mxCell>
        <mxCell id="9Zyja6iba0x6Raa5amca-161" value="" style="endArrow=box;html=1;strokeWidth=2;strokeColor=#b85450;exitX=1;exitY=0;exitDx=0;exitDy=0;dashed=1;gradientColor=#ea6b66;fillColor=#f8cecc;entryX=0.237;entryY=0.942;entryDx=0;entryDy=0;entryPerimeter=0;endFill=0;" edge="1" parent="1" source="9Zyja6iba0x6Raa5amca-147" target="9Zyja6iba0x6Raa5amca-2">
          <mxGeometry width="50" height="50" relative="1" as="geometry">
            <mxPoint x="899.0008280921647" y="777.4047563601953" as="sourcePoint" />
            <mxPoint x="1081.6599999999999" y="631" as="targetPoint" />
          </mxGeometry>
        </mxCell>
        <mxCell id="9Zyja6iba0x6Raa5amca-157" value="" style="endArrow=box;html=1;strokeWidth=4;strokeColor=#b85450;exitX=0.673;exitY=0;exitDx=0;exitDy=0;dashed=1;gradientColor=#ea6b66;fillColor=#f8cecc;entryX=0.157;entryY=0.883;entryDx=0;entryDy=0;entryPerimeter=0;exitPerimeter=0;endFill=0;" edge="1" parent="1" source="9Zyja6iba0x6Raa5amca-208" target="9Zyja6iba0x6Raa5amca-1">
          <mxGeometry width="50" height="50" relative="1" as="geometry">
            <mxPoint x="949.7867965644036" y="575.9932034355963" as="sourcePoint" />
            <mxPoint x="771.9976284475019" y="840.0014013014768" as="targetPoint" />
            <Array as="points" />
          </mxGeometry>
        </mxCell>
        <mxCell id="9Zyja6iba0x6Raa5amca-1" value="&lt;div&gt;P1/pC1&lt;/div&gt;&lt;div&gt;(pMP4, pMP-e)&lt;br&gt;&lt;/div&gt;" style="ellipse;whiteSpace=wrap;html=1;rounded=1;shadow=1;comic=0;labelBackgroundColor=none;strokeWidth=2;fontFamily=Verdana;fontSize=18;align=center;fontStyle=1" vertex="1" parent="1">
          <mxGeometry x="1231" y="3.5" width="180" height="145" as="geometry" />
        </mxCell>
        <mxCell id="9Zyja6iba0x6Raa5amca-2" value="mAL" style="ellipse;whiteSpace=wrap;html=1;rounded=1;shadow=1;comic=0;labelBackgroundColor=none;strokeWidth=2;fontFamily=Verdana;fontSize=12;align=center;" vertex="1" parent="1">
          <mxGeometry x="1090" y="395" width="120" height="80" as="geometry" />
        </mxCell>
        <mxCell id="9Zyja6iba0x6Raa5amca-4" value="&lt;div&gt;Target&lt;/div&gt;&lt;div&gt;Cuticular&lt;/div&gt;&lt;div&gt;Hidrocarbon&lt;/div&gt;&lt;div&gt;Chains&lt;br&gt;&lt;/div&gt;" style="rounded=0;whiteSpace=wrap;html=1;" vertex="1" parent="1">
          <mxGeometry x="-156.69" y="497" width="90" height="80" as="geometry" />
        </mxCell>
        <mxCell id="9Zyja6iba0x6Raa5amca-6" value="vAB3" style="ellipse;whiteSpace=wrap;html=1;rounded=1;shadow=1;comic=0;labelBackgroundColor=none;strokeWidth=2;fontFamily=Verdana;fontSize=12;align=center;" vertex="1" parent="1">
          <mxGeometry x="583.69" y="395" width="88.56" height="80" as="geometry" />
        </mxCell>
        <mxCell id="9Zyja6iba0x6Raa5amca-7" value="PPN1" style="ellipse;whiteSpace=wrap;html=1;rounded=1;shadow=1;comic=0;labelBackgroundColor=none;strokeWidth=2;fontFamily=Verdana;fontSize=12;align=center;" vertex="1" parent="1">
          <mxGeometry x="530.69" y="271" width="88.56" height="80" as="geometry" />
        </mxCell>
        <mxCell id="9Zyja6iba0x6Raa5amca-8" value="M cells" style="ellipse;whiteSpace=wrap;html=1;rounded=1;shadow=1;comic=0;labelBackgroundColor=none;strokeWidth=2;fontFamily=Verdana;fontSize=12;align=center;" vertex="1" parent="1">
          <mxGeometry x="153.81" y="577" width="120" height="80" as="geometry" />
        </mxCell>
        <mxCell id="9Zyja6iba0x6Raa5amca-9" value="F cells" style="ellipse;whiteSpace=wrap;html=1;rounded=1;shadow=1;comic=0;labelBackgroundColor=none;strokeWidth=2;fontFamily=Verdana;fontSize=12;align=center;" vertex="1" parent="1">
          <mxGeometry x="153.81" y="448" width="120" height="80" as="geometry" />
        </mxCell>
        <mxCell id="9Zyja6iba0x6Raa5amca-10" value="JONs (B)" style="ellipse;whiteSpace=wrap;html=1;rounded=1;shadow=1;comic=0;labelBackgroundColor=none;strokeWidth=2;fontFamily=Verdana;fontSize=12;align=center;" vertex="1" parent="1">
          <mxGeometry x="-166.13" y="-580" width="120" height="80" as="geometry" />
        </mxCell>
        <mxCell id="9Zyja6iba0x6Raa5amca-11" value="aPN1" style="ellipse;whiteSpace=wrap;html=1;rounded=1;shadow=1;comic=0;labelBackgroundColor=none;strokeWidth=2;fontFamily=Verdana;fontSize=12;align=center;" vertex="1" parent="1">
          <mxGeometry x="93.87" y="-580" width="120" height="80" as="geometry" />
        </mxCell>
        <mxCell id="9Zyja6iba0x6Raa5amca-12" value="&lt;div&gt;vPN1&lt;/div&gt;&lt;div&gt;(sub aSP-k) &lt;/div&gt;" style="ellipse;whiteSpace=wrap;html=1;rounded=1;shadow=1;comic=0;labelBackgroundColor=none;strokeWidth=2;fontFamily=Verdana;fontSize=12;align=center;" vertex="1" parent="1">
          <mxGeometry x="353.87" y="-580" width="120" height="80" as="geometry" />
        </mxCell>
        <mxCell id="9Zyja6iba0x6Raa5amca-13" value="Acoustic cues (pulse song)" style="rounded=0;whiteSpace=wrap;html=1;" vertex="1" parent="1">
          <mxGeometry x="-366.13" y="-567.5" width="90" height="55" as="geometry" />
        </mxCell>
        <mxCell id="9Zyja6iba0x6Raa5amca-14" value="LC1" style="ellipse;whiteSpace=wrap;html=1;rounded=1;shadow=1;comic=0;labelBackgroundColor=none;strokeWidth=2;fontFamily=Verdana;fontSize=12;align=center;" vertex="1" parent="1">
          <mxGeometry x="1381" y="1185" width="120" height="80" as="geometry" />
        </mxCell>
        <mxCell id="9Zyja6iba0x6Raa5amca-15" value="OR67d" style="ellipse;whiteSpace=wrap;html=1;rounded=1;shadow=1;comic=0;labelBackgroundColor=none;strokeWidth=2;fontFamily=Verdana;fontSize=12;align=center;" vertex="1" parent="1">
          <mxGeometry x="1381" y="1637.75" width="120" height="80" as="geometry" />
        </mxCell>
        <mxCell id="9Zyja6iba0x6Raa5amca-16" value="DA1 PN" style="ellipse;whiteSpace=wrap;html=1;rounded=1;shadow=1;comic=0;labelBackgroundColor=none;strokeWidth=2;fontFamily=Verdana;fontSize=12;align=center;" vertex="1" parent="1">
          <mxGeometry x="1381" y="1507.75" width="120" height="80" as="geometry" />
        </mxCell>
        <mxCell id="9Zyja6iba0x6Raa5amca-17" value="&lt;div&gt;DC1&lt;/div&gt;&lt;div&gt;(aSP-f)&lt;/div&gt;" style="ellipse;whiteSpace=wrap;html=1;rounded=1;shadow=1;comic=0;labelBackgroundColor=none;strokeWidth=2;fontFamily=Verdana;fontSize=12;align=center;" vertex="1" parent="1">
          <mxGeometry x="1519" y="1240" width="120" height="80" as="geometry" />
        </mxCell>
        <mxCell id="9Zyja6iba0x6Raa5amca-18" value="cVA" style="rounded=0;whiteSpace=wrap;html=1;" vertex="1" parent="1">
          <mxGeometry x="1411" y="1797.75" width="60" height="40" as="geometry" />
        </mxCell>
        <mxCell id="9Zyja6iba0x6Raa5amca-19" value="Visual cues (motion)" style="rounded=0;whiteSpace=wrap;html=1;gradientColor=#ea6b66;fillColor=#f8cecc;strokeColor=#b85450;" vertex="1" parent="1">
          <mxGeometry x="1612" y="-740" width="90" height="55" as="geometry" />
        </mxCell>
        <mxCell id="9Zyja6iba0x6Raa5amca-22" value="" style="endArrow=circle;html=1;entryX=0.251;entryY=0.932;entryDx=0;entryDy=0;strokeWidth=2;strokeColor=#000000;endFill=1;entryPerimeter=0;" edge="1" parent="1" source="9Zyja6iba0x6Raa5amca-2" target="9Zyja6iba0x6Raa5amca-1">
          <mxGeometry width="50" height="50" relative="1" as="geometry">
            <mxPoint x="1071.9999999999995" y="140" as="sourcePoint" />
            <mxPoint x="1071.9999999999995" y="380" as="targetPoint" />
          </mxGeometry>
        </mxCell>
        <mxCell id="9Zyja6iba0x6Raa5amca-23" value="" style="endArrow=circle;html=1;exitX=0.5;exitY=0;exitDx=0;exitDy=0;strokeWidth=2;strokeColor=#000000;endFill=1;entryX=0.592;entryY=1;entryDx=0;entryDy=0;entryPerimeter=0;" edge="1" parent="1" source="9Zyja6iba0x6Raa5amca-14" target="9Zyja6iba0x6Raa5amca-1">
          <mxGeometry width="50" height="50" relative="1" as="geometry">
            <mxPoint x="792.0000000000086" y="130" as="sourcePoint" />
            <mxPoint x="1330" y="150" as="targetPoint" />
          </mxGeometry>
        </mxCell>
        <mxCell id="9Zyja6iba0x6Raa5amca-24" value="" style="endArrow=circle;html=1;exitX=0;exitY=0;exitDx=0;exitDy=0;entryX=0.5;entryY=1;entryDx=0;entryDy=0;strokeWidth=2;strokeColor=#b85450;endFill=1;dashed=1;gradientColor=#ea6b66;fillColor=#f8cecc;" edge="1" parent="1" source="9Zyja6iba0x6Raa5amca-14" target="9Zyja6iba0x6Raa5amca-2">
          <mxGeometry width="50" height="50" relative="1" as="geometry">
            <mxPoint x="1049.5000000000086" y="391" as="sourcePoint" />
            <mxPoint x="1139.9799999999996" y="392.48" as="targetPoint" />
            <Array as="points">
              <mxPoint x="1350" y="1140" />
            </Array>
          </mxGeometry>
        </mxCell>
        <mxCell id="9Zyja6iba0x6Raa5amca-25" value="" style="endArrow=classic;html=1;exitX=0.5;exitY=0;exitDx=0;exitDy=0;entryX=0.704;entryY=0.975;entryDx=0;entryDy=0;strokeWidth=2;strokeColor=#000000;entryPerimeter=0;" edge="1" parent="1" source="9Zyja6iba0x6Raa5amca-17" target="9Zyja6iba0x6Raa5amca-1">
          <mxGeometry width="50" height="50" relative="1" as="geometry">
            <mxPoint x="1391.999999999986" y="60" as="sourcePoint" />
            <mxPoint x="1471.9999999999995" y="60" as="targetPoint" />
          </mxGeometry>
        </mxCell>
        <mxCell id="9Zyja6iba0x6Raa5amca-26" value="" style="endArrow=classic;html=1;exitX=0.5;exitY=0;exitDx=0;exitDy=0;strokeWidth=2;strokeColor=#000000;" edge="1" parent="1" source="9Zyja6iba0x6Raa5amca-16" target="9Zyja6iba0x6Raa5amca-17">
          <mxGeometry width="50" height="50" relative="1" as="geometry">
            <mxPoint x="1020.9999999999859" y="1251" as="sourcePoint" />
            <mxPoint x="1100.9999999999995" y="1251" as="targetPoint" />
          </mxGeometry>
        </mxCell>
        <mxCell id="9Zyja6iba0x6Raa5amca-27" value="" style="endArrow=classic;html=1;exitX=0.5;exitY=0;exitDx=0;exitDy=0;entryX=0.5;entryY=1;entryDx=0;entryDy=0;strokeWidth=2;strokeColor=#000000;" edge="1" parent="1" source="9Zyja6iba0x6Raa5amca-16" target="9Zyja6iba0x6Raa5amca-14">
          <mxGeometry width="50" height="50" relative="1" as="geometry">
            <mxPoint x="968.4999999999859" y="1061" as="sourcePoint" />
            <mxPoint x="1048.4999999999995" y="1061" as="targetPoint" />
          </mxGeometry>
        </mxCell>
        <mxCell id="9Zyja6iba0x6Raa5amca-28" value="" style="endArrow=classic;html=1;strokeWidth=2;strokeColor=#000000;entryX=0.065;entryY=0.748;entryDx=0;entryDy=0;entryPerimeter=0;exitX=1;exitY=0.5;exitDx=0;exitDy=0;" edge="1" parent="1" source="9Zyja6iba0x6Raa5amca-7" target="9Zyja6iba0x6Raa5amca-1">
          <mxGeometry width="50" height="50" relative="1" as="geometry">
            <mxPoint x="870" y="390" as="sourcePoint" />
            <mxPoint x="1252" y="120" as="targetPoint" />
          </mxGeometry>
        </mxCell>
        <mxCell id="9Zyja6iba0x6Raa5amca-29" value="" style="endArrow=classic;html=1;exitX=1;exitY=1;exitDx=0;exitDy=0;strokeWidth=2;strokeColor=#000000;" edge="1" parent="1" source="9Zyja6iba0x6Raa5amca-6" target="9Zyja6iba0x6Raa5amca-2">
          <mxGeometry width="50" height="50" relative="1" as="geometry">
            <mxPoint x="899.4999999999859" y="631" as="sourcePoint" />
            <mxPoint x="979.4999999999995" y="631" as="targetPoint" />
          </mxGeometry>
        </mxCell>
        <mxCell id="9Zyja6iba0x6Raa5amca-30" value="" style="endArrow=classic;html=1;exitX=1;exitY=0;exitDx=0;exitDy=0;strokeWidth=2;strokeColor=#000000;entryX=0.096;entryY=0.828;entryDx=0;entryDy=0;entryPerimeter=0;" edge="1" parent="1" source="9Zyja6iba0x6Raa5amca-6" target="9Zyja6iba0x6Raa5amca-1">
          <mxGeometry width="50" height="50" relative="1" as="geometry">
            <mxPoint x="1441.999999999986" y="110" as="sourcePoint" />
            <mxPoint x="1521.9999999999995" y="110" as="targetPoint" />
          </mxGeometry>
        </mxCell>
        <mxCell id="9Zyja6iba0x6Raa5amca-31" value="" style="endArrow=classic;html=1;exitX=1;exitY=0.5;exitDx=0;exitDy=0;entryX=0;entryY=0.5;entryDx=0;entryDy=0;strokeWidth=2;strokeColor=#000000;" edge="1" parent="1" source="9Zyja6iba0x6Raa5amca-9" target="9Zyja6iba0x6Raa5amca-7">
          <mxGeometry width="50" height="50" relative="1" as="geometry">
            <mxPoint x="404.30999999998585" y="670" as="sourcePoint" />
            <mxPoint x="484.3099999999995" y="670" as="targetPoint" />
          </mxGeometry>
        </mxCell>
        <mxCell id="9Zyja6iba0x6Raa5amca-32" value="" style="endArrow=classic;html=1;exitX=1;exitY=0.5;exitDx=0;exitDy=0;entryX=0;entryY=0.5;entryDx=0;entryDy=0;strokeWidth=2;strokeColor=#000000;" edge="1" parent="1" source="9Zyja6iba0x6Raa5amca-9" target="9Zyja6iba0x6Raa5amca-6">
          <mxGeometry width="50" height="50" relative="1" as="geometry">
            <mxPoint x="384.30999999998585" y="750" as="sourcePoint" />
            <mxPoint x="464.3099999999995" y="750" as="targetPoint" />
          </mxGeometry>
        </mxCell>
        <mxCell id="9Zyja6iba0x6Raa5amca-33" value="" style="endArrow=classic;html=1;exitX=1;exitY=0.5;exitDx=0;exitDy=0;strokeWidth=2;strokeColor=#000000;" edge="1" parent="1" source="9Zyja6iba0x6Raa5amca-8" target="9Zyja6iba0x6Raa5amca-2">
          <mxGeometry width="50" height="50" relative="1" as="geometry">
            <mxPoint x="669.4999999999859" y="671" as="sourcePoint" />
            <mxPoint x="749.4999999999995" y="671" as="targetPoint" />
          </mxGeometry>
        </mxCell>
        <mxCell id="9Zyja6iba0x6Raa5amca-34" value="" style="endArrow=classic;html=1;exitX=1;exitY=0.5;exitDx=0;exitDy=0;entryX=0;entryY=0.5;entryDx=0;entryDy=0;strokeWidth=2;strokeColor=#000000;" edge="1" parent="1" source="9Zyja6iba0x6Raa5amca-4" target="9Zyja6iba0x6Raa5amca-9">
          <mxGeometry width="50" height="50" relative="1" as="geometry">
            <mxPoint x="28.809999999985905" y="578" as="sourcePoint" />
            <mxPoint x="108.80999999999955" y="578" as="targetPoint" />
          </mxGeometry>
        </mxCell>
        <mxCell id="9Zyja6iba0x6Raa5amca-35" value="" style="endArrow=classic;html=1;exitX=1;exitY=0.5;exitDx=0;exitDy=0;entryX=0;entryY=0.5;entryDx=0;entryDy=0;strokeWidth=2;strokeColor=#000000;" edge="1" parent="1" source="9Zyja6iba0x6Raa5amca-4" target="9Zyja6iba0x6Raa5amca-8">
          <mxGeometry width="50" height="50" relative="1" as="geometry">
            <mxPoint x="38.809999999985905" y="606.8199999999999" as="sourcePoint" />
            <mxPoint x="118.80999999999955" y="606.8199999999999" as="targetPoint" />
          </mxGeometry>
        </mxCell>
        <mxCell id="9Zyja6iba0x6Raa5amca-36" value="" style="endArrow=classic;html=1;exitX=0.5;exitY=0;exitDx=0;exitDy=0;entryX=0.5;entryY=1;entryDx=0;entryDy=0;strokeWidth=2;strokeColor=#000000;" edge="1" parent="1" source="9Zyja6iba0x6Raa5amca-15" target="9Zyja6iba0x6Raa5amca-16">
          <mxGeometry width="50" height="50" relative="1" as="geometry">
            <mxPoint x="1070.9999999999995" y="1672.75" as="sourcePoint" />
            <mxPoint x="1160.9999999999995" y="1647.75" as="targetPoint" />
          </mxGeometry>
        </mxCell>
        <mxCell id="9Zyja6iba0x6Raa5amca-37" value="" style="endArrow=classic;html=1;exitX=0.5;exitY=0;exitDx=0;exitDy=0;entryX=0.5;entryY=1;entryDx=0;entryDy=0;strokeWidth=2;strokeColor=#000000;" edge="1" parent="1" source="9Zyja6iba0x6Raa5amca-18" target="9Zyja6iba0x6Raa5amca-15">
          <mxGeometry width="50" height="50" relative="1" as="geometry">
            <mxPoint x="910.9999999999995" y="1562.75" as="sourcePoint" />
            <mxPoint x="1000.9999999999995" y="1537.75" as="targetPoint" />
          </mxGeometry>
        </mxCell>
        <mxCell id="9Zyja6iba0x6Raa5amca-38" value="" style="endArrow=classic;html=1;strokeWidth=2;strokeColor=#000000;entryX=0;entryY=0.5;entryDx=0;entryDy=0;" edge="1" parent="1" source="9Zyja6iba0x6Raa5amca-13" target="9Zyja6iba0x6Raa5amca-10">
          <mxGeometry width="50" height="50" relative="1" as="geometry">
            <mxPoint x="-186.13" y="-210" as="sourcePoint" />
            <mxPoint x="-176.13" y="-300" as="targetPoint" />
          </mxGeometry>
        </mxCell>
        <mxCell id="9Zyja6iba0x6Raa5amca-39" value="" style="endArrow=classic;html=1;exitX=1;exitY=0.5;exitDx=0;exitDy=0;entryX=0;entryY=0.5;entryDx=0;entryDy=0;strokeWidth=2;strokeColor=#000000;" edge="1" parent="1" source="9Zyja6iba0x6Raa5amca-10" target="9Zyja6iba0x6Raa5amca-11">
          <mxGeometry width="50" height="50" relative="1" as="geometry">
            <mxPoint x="-46.129999999999995" y="-210" as="sourcePoint" />
            <mxPoint x="68.87" y="-300" as="targetPoint" />
          </mxGeometry>
        </mxCell>
        <mxCell id="9Zyja6iba0x6Raa5amca-40" value="" style="endArrow=classic;html=1;exitX=1;exitY=0.5;exitDx=0;exitDy=0;entryX=0;entryY=0.5;entryDx=0;entryDy=0;strokeWidth=2;strokeColor=#000000;" edge="1" parent="1" source="9Zyja6iba0x6Raa5amca-11" target="9Zyja6iba0x6Raa5amca-12">
          <mxGeometry width="50" height="50" relative="1" as="geometry">
            <mxPoint x="223.87" y="-170" as="sourcePoint" />
            <mxPoint x="338.87" y="-260" as="targetPoint" />
          </mxGeometry>
        </mxCell>
        <mxCell id="9Zyja6iba0x6Raa5amca-41" value="" style="endArrow=classic;html=1;exitX=1;exitY=1;exitDx=0;exitDy=0;entryX=0;entryY=0;entryDx=0;entryDy=0;strokeWidth=2;strokeColor=#000000;" edge="1" parent="1" source="9Zyja6iba0x6Raa5amca-12" target="9Zyja6iba0x6Raa5amca-1">
          <mxGeometry width="50" height="50" relative="1" as="geometry">
            <mxPoint x="1252" y="-45" as="sourcePoint" />
            <mxPoint x="1255.8884220635673" y="21.61779528854595" as="targetPoint" />
          </mxGeometry>
        </mxCell>
        <mxCell id="9Zyja6iba0x6Raa5amca-42" value="LC10a" style="ellipse;whiteSpace=wrap;html=1;rounded=1;shadow=1;comic=0;labelBackgroundColor=none;strokeWidth=2;fontFamily=Verdana;fontSize=12;align=center;gradientColor=#ea6b66;fillColor=#f8cecc;strokeColor=#b85450;" vertex="1" parent="1">
          <mxGeometry x="1597" y="-612.5" width="120" height="80" as="geometry" />
        </mxCell>
        <mxCell id="9Zyja6iba0x6Raa5amca-44" value="B2" style="ellipse;whiteSpace=wrap;html=1;rounded=1;shadow=1;comic=0;labelBackgroundColor=none;strokeWidth=2;fontFamily=Verdana;fontSize=12;align=center;gradientColor=#ea6b66;fillColor=#f8cecc;strokeColor=#b85450;" vertex="1" parent="1">
          <mxGeometry x="-36.129999999999995" y="-660" width="120" height="80" as="geometry" />
        </mxCell>
        <mxCell id="9Zyja6iba0x6Raa5amca-45" value="aLN" style="ellipse;whiteSpace=wrap;html=1;rounded=1;shadow=1;comic=0;labelBackgroundColor=none;strokeWidth=2;fontFamily=Verdana;fontSize=12;align=center;gradientColor=#ea6b66;fillColor=#f8cecc;strokeColor=#b85450;" vertex="1" parent="1">
          <mxGeometry x="-36.129999999999995" y="-481" width="120" height="80" as="geometry" />
        </mxCell>
        <mxCell id="9Zyja6iba0x6Raa5amca-47" value="" style="endArrow=classic;html=1;exitX=0.5;exitY=0;exitDx=0;exitDy=0;entryX=0;entryY=0.5;entryDx=0;entryDy=0;strokeWidth=2;strokeColor=#b85450;gradientColor=#ea6b66;fillColor=#f8cecc;" edge="1" parent="1" source="9Zyja6iba0x6Raa5amca-10" target="9Zyja6iba0x6Raa5amca-44">
          <mxGeometry width="50" height="50" relative="1" as="geometry">
            <mxPoint x="-56.129999999999995" y="-442.5" as="sourcePoint" />
            <mxPoint x="83.86999999999955" y="-442.5" as="targetPoint" />
          </mxGeometry>
        </mxCell>
        <mxCell id="9Zyja6iba0x6Raa5amca-48" value="" style="endArrow=classic;html=1;exitX=0.5;exitY=1;exitDx=0;exitDy=0;entryX=0;entryY=0.5;entryDx=0;entryDy=0;strokeWidth=2;strokeColor=#b85450;gradientColor=#ea6b66;fillColor=#f8cecc;" edge="1" parent="1" source="9Zyja6iba0x6Raa5amca-10" target="9Zyja6iba0x6Raa5amca-45">
          <mxGeometry width="50" height="50" relative="1" as="geometry">
            <mxPoint x="-36.129999999999995" y="-460" as="sourcePoint" />
            <mxPoint x="103.86999999999955" y="-460" as="targetPoint" />
          </mxGeometry>
        </mxCell>
        <mxCell id="9Zyja6iba0x6Raa5amca-50" value="" style="endArrow=circle;html=1;entryX=0.5;entryY=1;entryDx=0;entryDy=0;strokeWidth=2;strokeColor=#b85450;endFill=1;exitX=1;exitY=0.5;exitDx=0;exitDy=0;gradientColor=#ea6b66;fillColor=#f8cecc;" edge="1" parent="1" source="9Zyja6iba0x6Raa5amca-45" target="9Zyja6iba0x6Raa5amca-11">
          <mxGeometry width="50" height="50" relative="1" as="geometry">
            <mxPoint x="153.87" y="-290" as="sourcePoint" />
            <mxPoint x="192.7135931288068" y="-380.00359312880727" as="targetPoint" />
          </mxGeometry>
        </mxCell>
        <mxCell id="9Zyja6iba0x6Raa5amca-51" value="" style="endArrow=circle;html=1;entryX=0.5;entryY=0;entryDx=0;entryDy=0;strokeWidth=2;strokeColor=#b85450;endFill=1;exitX=1;exitY=0.5;exitDx=0;exitDy=0;gradientColor=#ea6b66;fillColor=#f8cecc;" edge="1" parent="1" source="9Zyja6iba0x6Raa5amca-44" target="9Zyja6iba0x6Raa5amca-11">
          <mxGeometry width="50" height="50" relative="1" as="geometry">
            <mxPoint x="123.87207452176892" y="-287.97924187632515" as="sourcePoint" />
            <mxPoint x="252.7135931288068" y="-390.00359312880727" as="targetPoint" />
          </mxGeometry>
        </mxCell>
        <mxCell id="9Zyja6iba0x6Raa5amca-52" value="JONs (A)" style="ellipse;whiteSpace=wrap;html=1;rounded=1;shadow=1;comic=0;labelBackgroundColor=none;strokeWidth=2;fontFamily=Verdana;fontSize=12;align=center;" vertex="1" parent="1">
          <mxGeometry x="-166.13" y="-730" width="120" height="80" as="geometry" />
        </mxCell>
        <mxCell id="9Zyja6iba0x6Raa5amca-53" value="" style="endArrow=classic;html=1;strokeWidth=2;strokeColor=#000000;entryX=0;entryY=0.5;entryDx=0;entryDy=0;exitX=1;exitY=0.5;exitDx=0;exitDy=0;" edge="1" parent="1" source="9Zyja6iba0x6Raa5amca-13" target="9Zyja6iba0x6Raa5amca-52">
          <mxGeometry width="50" height="50" relative="1" as="geometry">
            <mxPoint x="-246.13" y="-500" as="sourcePoint" />
            <mxPoint x="-166.13" y="-470" as="targetPoint" />
          </mxGeometry>
        </mxCell>
        <mxCell id="9Zyja6iba0x6Raa5amca-54" value="pC2l" style="ellipse;whiteSpace=wrap;html=1;rounded=1;shadow=1;comic=0;labelBackgroundColor=none;strokeWidth=2;fontFamily=Verdana;fontSize=12;align=center;" vertex="1" parent="1">
          <mxGeometry x="573.87" y="-730" width="120" height="80" as="geometry" />
        </mxCell>
        <mxCell id="9Zyja6iba0x6Raa5amca-55" value="" style="endArrow=classic;html=1;strokeWidth=2;strokeColor=#000000;entryX=0;entryY=0.5;entryDx=0;entryDy=0;exitX=1;exitY=0.5;exitDx=0;exitDy=0;dashed=1;" edge="1" parent="1" source="9Zyja6iba0x6Raa5amca-52" target="9Zyja6iba0x6Raa5amca-54">
          <mxGeometry width="50" height="50" relative="1" as="geometry">
            <mxPoint x="-26.129999999999995" y="-660" as="sourcePoint" />
            <mxPoint x="83.87" y="-760" as="targetPoint" />
          </mxGeometry>
        </mxCell>
        <mxCell id="9Zyja6iba0x6Raa5amca-56" value="" style="endArrow=classic;html=1;strokeWidth=2;strokeColor=#000000;entryX=0.367;entryY=0;entryDx=0;entryDy=0;exitX=0.5;exitY=1;exitDx=0;exitDy=0;entryPerimeter=0;" edge="1" parent="1" source="9Zyja6iba0x6Raa5amca-54" target="9Zyja6iba0x6Raa5amca-1">
          <mxGeometry width="50" height="50" relative="1" as="geometry">
            <mxPoint x="972" y="-379" as="sourcePoint" />
            <mxPoint x="1320" as="targetPoint" />
          </mxGeometry>
        </mxCell>
        <mxCell id="9Zyja6iba0x6Raa5amca-57" value="DNa10" style="ellipse;whiteSpace=wrap;html=1;rounded=1;shadow=1;comic=0;labelBackgroundColor=none;strokeWidth=2;fontFamily=Verdana;fontSize=12;align=center;" vertex="1" parent="1">
          <mxGeometry x="1817" y="-612.5" width="120" height="80" as="geometry" />
        </mxCell>
        <mxCell id="9Zyja6iba0x6Raa5amca-61" value="" style="endArrow=classic;html=1;strokeWidth=2;strokeColor=#000000;entryX=0;entryY=0.5;entryDx=0;entryDy=0;exitX=1;exitY=0.5;exitDx=0;exitDy=0;dashed=1;" edge="1" parent="1" source="9Zyja6iba0x6Raa5amca-42" target="9Zyja6iba0x6Raa5amca-57">
          <mxGeometry width="50" height="50" relative="1" as="geometry">
            <mxPoint x="1687" y="-640" as="sourcePoint" />
            <mxPoint x="1797" y="-740" as="targetPoint" />
          </mxGeometry>
        </mxCell>
        <mxCell id="9Zyja6iba0x6Raa5amca-63" value="" style="endArrow=classic;html=1;strokeWidth=2;strokeColor=#b85450;exitX=0.5;exitY=1;exitDx=0;exitDy=0;dashed=1;entryX=0.5;entryY=0;entryDx=0;entryDy=0;gradientColor=#ea6b66;fillColor=#f8cecc;" edge="1" parent="1" source="9Zyja6iba0x6Raa5amca-42" target="9Zyja6iba0x6Raa5amca-80">
          <mxGeometry width="50" height="50" relative="1" as="geometry">
            <mxPoint x="1586.9999999999995" y="-450" as="sourcePoint" />
            <mxPoint x="1617" y="-347.5" as="targetPoint" />
          </mxGeometry>
        </mxCell>
        <mxCell id="9Zyja6iba0x6Raa5amca-66" value="" style="endArrow=classic;html=1;strokeWidth=2;strokeColor=#b85450;exitX=0;exitY=1;exitDx=0;exitDy=0;dashed=1;gradientColor=#ea6b66;fillColor=#f8cecc;entryX=0.827;entryY=0.142;entryDx=0;entryDy=0;entryPerimeter=0;" edge="1" parent="1" source="9Zyja6iba0x6Raa5amca-80" target="9Zyja6iba0x6Raa5amca-1">
          <mxGeometry width="50" height="50" relative="1" as="geometry">
            <mxPoint x="1552" y="-207.5" as="sourcePoint" />
            <mxPoint x="1521.9999999999995" y="-100" as="targetPoint" />
          </mxGeometry>
        </mxCell>
        <mxCell id="9Zyja6iba0x6Raa5amca-67" value="" style="endArrow=classic;html=1;strokeWidth=2;strokeColor=#b85450;exitX=0.728;exitY=0.071;exitDx=0;exitDy=0;dashed=1;entryX=0;entryY=1;entryDx=0;entryDy=0;exitPerimeter=0;gradientColor=#ea6b66;fillColor=#f8cecc;" edge="1" parent="1" source="9Zyja6iba0x6Raa5amca-1" target="9Zyja6iba0x6Raa5amca-42">
          <mxGeometry width="50" height="50" relative="1" as="geometry">
            <mxPoint x="1431.9999999999995" y="-375.86" as="sourcePoint" />
            <mxPoint x="1509.5735931288073" y="-84.14427124746146" as="targetPoint" />
          </mxGeometry>
        </mxCell>
        <mxCell id="9Zyja6iba0x6Raa5amca-69" value="" style="endArrow=classic;html=1;strokeWidth=2;strokeColor=#b85450;entryX=0.5;entryY=0;entryDx=0;entryDy=0;exitX=0.5;exitY=1;exitDx=0;exitDy=0;dashed=1;gradientColor=#ea6b66;fillColor=#f8cecc;" edge="1" parent="1" source="9Zyja6iba0x6Raa5amca-19" target="9Zyja6iba0x6Raa5amca-42">
          <mxGeometry width="50" height="50" relative="1" as="geometry">
            <mxPoint x="1716.9999999999995" y="-572.5" as="sourcePoint" />
            <mxPoint x="1816.9999999999995" y="-572.5" as="targetPoint" />
          </mxGeometry>
        </mxCell>
        <mxCell id="9Zyja6iba0x6Raa5amca-70" value="pIP10" style="ellipse;whiteSpace=wrap;html=1;rounded=1;shadow=1;comic=0;labelBackgroundColor=none;strokeWidth=2;fontFamily=Verdana;fontSize=12;align=center;" vertex="1" parent="1">
          <mxGeometry x="1960" y="65" width="120" height="80" as="geometry" />
        </mxCell>
        <mxCell id="9Zyja6iba0x6Raa5amca-246" style="edgeStyle=orthogonalEdgeStyle;rounded=0;orthogonalLoop=1;jettySize=auto;html=1;exitX=1;exitY=0.5;exitDx=0;exitDy=0;startArrow=none;startFill=0;endArrow=classicThin;endFill=1;strokeColor=#000000;strokeWidth=4;fontFamily=Verdana;fontSize=12;fontColor=#000000;entryX=0;entryY=0.5;entryDx=0;entryDy=0;" edge="1" parent="1" source="9Zyja6iba0x6Raa5amca-71" target="9Zyja6iba0x6Raa5amca-231">
          <mxGeometry relative="1" as="geometry">
            <mxPoint x="2260" y="20" as="targetPoint" />
            <Array as="points">
              <mxPoint x="2260" y="195" />
              <mxPoint x="2260" y="57" />
            </Array>
          </mxGeometry>
        </mxCell>
        <mxCell id="9Zyja6iba0x6Raa5amca-249" style="edgeStyle=orthogonalEdgeStyle;rounded=0;orthogonalLoop=1;jettySize=auto;html=1;exitX=1;exitY=0.5;exitDx=0;exitDy=0;entryX=0;entryY=0.5;entryDx=0;entryDy=0;startArrow=none;startFill=0;endArrow=classicThin;endFill=1;strokeColor=#000000;strokeWidth=4;fontFamily=Verdana;fontSize=12;fontColor=#000000;" edge="1" parent="1" source="9Zyja6iba0x6Raa5amca-71" target="9Zyja6iba0x6Raa5amca-233">
          <mxGeometry relative="1" as="geometry" />
        </mxCell>
        <mxCell id="9Zyja6iba0x6Raa5amca-250" style="edgeStyle=orthogonalEdgeStyle;rounded=0;orthogonalLoop=1;jettySize=auto;html=1;entryX=0;entryY=0.5;entryDx=0;entryDy=0;startArrow=none;startFill=0;endArrow=classicThin;endFill=1;strokeWidth=4;fontFamily=Verdana;fontSize=12;fontColor=#000000;dashed=1;strokeColor=#B85450;" edge="1" parent="1" source="9Zyja6iba0x6Raa5amca-71" target="9Zyja6iba0x6Raa5amca-236">
          <mxGeometry relative="1" as="geometry" />
        </mxCell>
        <mxCell id="9Zyja6iba0x6Raa5amca-71" value="&lt;div align=&quot;center&quot;&gt;pIP1/P2b&lt;/div&gt;" style="ellipse;whiteSpace=wrap;html=1;rounded=1;shadow=1;comic=0;labelBackgroundColor=none;strokeWidth=2;fontFamily=Verdana;fontSize=12;align=center;gradientColor=#ea6b66;fillColor=#f8cecc;strokeColor=#b85450;" vertex="1" parent="1">
          <mxGeometry x="1940" y="155" width="120" height="80" as="geometry" />
        </mxCell>
        <mxCell id="9Zyja6iba0x6Raa5amca-72" value="asp22" style="ellipse;whiteSpace=wrap;html=1;rounded=1;shadow=1;comic=0;labelBackgroundColor=none;strokeWidth=2;fontFamily=Verdana;fontSize=12;align=center;gradientColor=#ea6b66;fillColor=#f8cecc;strokeColor=#b85450;" vertex="1" parent="1">
          <mxGeometry x="1920" y="255" width="120" height="80" as="geometry" />
        </mxCell>
        <mxCell id="9Zyja6iba0x6Raa5amca-74" value="" style="endArrow=classic;html=1;strokeWidth=2;strokeColor=#000000;exitX=0.992;exitY=0.638;exitDx=0;exitDy=0;exitPerimeter=0;entryX=0;entryY=0.5;entryDx=0;entryDy=0;" edge="1" parent="1" source="9Zyja6iba0x6Raa5amca-1" target="9Zyja6iba0x6Raa5amca-70">
          <mxGeometry width="50" height="50" relative="1" as="geometry">
            <mxPoint x="1552" y="-207.5" as="sourcePoint" />
            <mxPoint x="1359.1711710772356" y="37.901124846235234" as="targetPoint" />
          </mxGeometry>
        </mxCell>
        <mxCell id="9Zyja6iba0x6Raa5amca-75" value="" style="endArrow=classic;html=1;strokeWidth=2;strokeColor=#b85450;exitX=0.932;exitY=0.793;exitDx=0;exitDy=0;dashed=1;exitPerimeter=0;entryX=0.004;entryY=0.391;entryDx=0;entryDy=0;gradientColor=#ea6b66;fillColor=#f8cecc;entryPerimeter=0;" edge="1" parent="1" source="9Zyja6iba0x6Raa5amca-1" target="9Zyja6iba0x6Raa5amca-71">
          <mxGeometry width="50" height="50" relative="1" as="geometry">
            <mxPoint x="1574.83" y="154.60000000000002" as="sourcePoint" />
            <mxPoint x="1382.0011710772355" y="400.00112484623526" as="targetPoint" />
          </mxGeometry>
        </mxCell>
        <mxCell id="9Zyja6iba0x6Raa5amca-76" value="" style="endArrow=classic;html=1;strokeWidth=2;strokeColor=#b85450;exitX=0.777;exitY=0.912;exitDx=0;exitDy=0;dashed=1;exitPerimeter=0;entryX=-0.002;entryY=0.389;entryDx=0;entryDy=0;gradientColor=#ea6b66;fillColor=#f8cecc;entryPerimeter=0;" edge="1" parent="1" source="9Zyja6iba0x6Raa5amca-1" target="9Zyja6iba0x6Raa5amca-77">
          <mxGeometry width="50" height="50" relative="1" as="geometry">
            <mxPoint x="1572" y="-187.5" as="sourcePoint" />
            <mxPoint x="1582" y="380" as="targetPoint" />
          </mxGeometry>
        </mxCell>
        <mxCell id="9Zyja6iba0x6Raa5amca-77" value="?" style="ellipse;whiteSpace=wrap;html=1;rounded=1;shadow=1;comic=0;labelBackgroundColor=none;strokeWidth=2;fontFamily=Verdana;fontSize=12;align=center;fillColor=#6a00ff;strokeColor=#3700CC;fontColor=#ffffff;" vertex="1" parent="1">
          <mxGeometry x="1670" y="190" width="60" height="60" as="geometry" />
        </mxCell>
        <mxCell id="9Zyja6iba0x6Raa5amca-79" value="" style="endArrow=classic;html=1;strokeWidth=2;strokeColor=#b85450;exitX=1.057;exitY=0.664;exitDx=0;exitDy=0;dashed=1;entryX=0.024;entryY=0.332;entryDx=0;entryDy=0;gradientColor=#ea6b66;fillColor=#f8cecc;exitPerimeter=0;entryPerimeter=0;" edge="1" parent="1" source="9Zyja6iba0x6Raa5amca-77" target="9Zyja6iba0x6Raa5amca-72">
          <mxGeometry width="50" height="50" relative="1" as="geometry">
            <mxPoint x="1743.2399999999998" y="29.440000000000055" as="sourcePoint" />
            <mxPoint x="1777.5735931288073" y="246.71572875253787" as="targetPoint" />
          </mxGeometry>
        </mxCell>
        <mxCell id="9Zyja6iba0x6Raa5amca-80" value="?" style="ellipse;whiteSpace=wrap;html=1;rounded=1;shadow=1;comic=0;labelBackgroundColor=none;strokeWidth=2;fontFamily=Verdana;fontSize=12;align=center;fillColor=#6a00ff;strokeColor=#3700CC;fontColor=#ffffff;" vertex="1" parent="1">
          <mxGeometry x="1587" y="-340" width="60" height="60" as="geometry" />
        </mxCell>
        <mxCell id="9Zyja6iba0x6Raa5amca-81" value="ppl2ab" style="ellipse;whiteSpace=wrap;html=1;rounded=1;shadow=1;comic=0;labelBackgroundColor=none;strokeWidth=2;fontFamily=Verdana;fontSize=12;align=center;gradientColor=#ea6b66;fillColor=#f8cecc;strokeColor=#b85450;" vertex="1" parent="1">
          <mxGeometry x="0.8100000000000023" y="231" width="120" height="80" as="geometry" />
        </mxCell>
        <mxCell id="9Zyja6iba0x6Raa5amca-82" value="CRN" style="ellipse;whiteSpace=wrap;html=1;rounded=1;shadow=1;comic=0;labelBackgroundColor=none;strokeWidth=2;fontFamily=Verdana;fontSize=12;align=center;" vertex="1" parent="1">
          <mxGeometry x="-166.69" y="-194" width="120" height="80" as="geometry" />
        </mxCell>
        <mxCell id="9Zyja6iba0x6Raa5amca-83" value="NPF" style="ellipse;whiteSpace=wrap;html=1;rounded=1;shadow=1;comic=0;labelBackgroundColor=none;strokeWidth=2;fontFamily=Verdana;fontSize=12;align=center;" vertex="1" parent="1">
          <mxGeometry x="-166.69" y="-54" width="120" height="80" as="geometry" />
        </mxCell>
        <mxCell id="9Zyja6iba0x6Raa5amca-84" value="pCd" style="ellipse;whiteSpace=wrap;html=1;rounded=1;shadow=1;comic=0;labelBackgroundColor=none;strokeWidth=2;fontFamily=Verdana;fontSize=12;align=center;" vertex="1" parent="1">
          <mxGeometry x="-276.69" y="56" width="120" height="80" as="geometry" />
        </mxCell>
        <mxCell id="9Zyja6iba0x6Raa5amca-86" value="TH" style="ellipse;whiteSpace=wrap;html=1;rounded=1;shadow=1;comic=0;labelBackgroundColor=none;strokeWidth=2;fontFamily=Verdana;fontSize=12;align=center;" vertex="1" parent="1">
          <mxGeometry x="80.81" y="-54" width="120" height="80" as="geometry" />
        </mxCell>
        <mxCell id="9Zyja6iba0x6Raa5amca-87" value="asp4" style="ellipse;whiteSpace=wrap;html=1;rounded=1;shadow=1;comic=0;labelBackgroundColor=none;strokeWidth=2;fontFamily=Verdana;fontSize=12;align=center;gradientColor=#ea6b66;fillColor=#f8cecc;strokeColor=#b85450;" vertex="1" parent="1">
          <mxGeometry x="80.81" y="36" width="120" height="80" as="geometry" />
        </mxCell>
        <mxCell id="9Zyja6iba0x6Raa5amca-88" value="NP5945" style="ellipse;whiteSpace=wrap;html=1;rounded=1;shadow=1;comic=0;labelBackgroundColor=none;strokeWidth=2;fontFamily=Verdana;fontSize=12;align=center;gradientColor=#ea6b66;fillColor=#f8cecc;strokeColor=#b85450;" vertex="1" parent="1">
          <mxGeometry x="80.81" y="127" width="120" height="80" as="geometry" />
        </mxCell>
        <mxCell id="9Zyja6iba0x6Raa5amca-89" value="" style="endArrow=classic;html=1;exitX=1;exitY=0.5;exitDx=0;exitDy=0;strokeWidth=2;strokeColor=#000000;entryX=0.028;entryY=0.372;entryDx=0;entryDy=0;entryPerimeter=0;" edge="1" parent="1" source="9Zyja6iba0x6Raa5amca-86" target="9Zyja6iba0x6Raa5amca-1">
          <mxGeometry width="50" height="50" relative="1" as="geometry">
            <mxPoint x="802" y="331" as="sourcePoint" />
            <mxPoint x="1234.5" y="54.375" as="targetPoint" />
          </mxGeometry>
        </mxCell>
        <mxCell id="9Zyja6iba0x6Raa5amca-90" value="" style="endArrow=classic;html=1;exitX=1;exitY=0.5;exitDx=0;exitDy=0;strokeWidth=2;strokeColor=#000000;entryX=0;entryY=0.5;entryDx=0;entryDy=0;" edge="1" parent="1" source="9Zyja6iba0x6Raa5amca-83" target="9Zyja6iba0x6Raa5amca-86">
          <mxGeometry width="50" height="50" relative="1" as="geometry">
            <mxPoint x="-44.19" y="454" as="sourcePoint" />
            <mxPoint x="408.38359312880726" y="24.715728752538325" as="targetPoint" />
          </mxGeometry>
        </mxCell>
        <mxCell id="9Zyja6iba0x6Raa5amca-91" value="" style="endArrow=classic;html=1;exitX=0.5;exitY=0;exitDx=0;exitDy=0;strokeWidth=2;strokeColor=#000000;entryX=0;entryY=0.5;entryDx=0;entryDy=0;" edge="1" parent="1" source="9Zyja6iba0x6Raa5amca-84" target="9Zyja6iba0x6Raa5amca-83">
          <mxGeometry width="50" height="50" relative="1" as="geometry">
            <mxPoint x="-286.6935931288073" y="-53.99572875253807" as="sourcePoint" />
            <mxPoint x="-221.5464068711928" y="-30.564271247461647" as="targetPoint" />
            <Array as="points">
              <mxPoint x="-216.69" y="-14" />
            </Array>
          </mxGeometry>
        </mxCell>
        <mxCell id="9Zyja6iba0x6Raa5amca-92" value="" style="endArrow=classic;html=1;strokeWidth=2;strokeColor=#000000;entryX=1;entryY=1;entryDx=0;entryDy=0;exitX=0.5;exitY=1;exitDx=0;exitDy=0;" edge="1" parent="1" source="9Zyja6iba0x6Raa5amca-83" target="9Zyja6iba0x6Raa5amca-84">
          <mxGeometry width="50" height="50" relative="1" as="geometry">
            <mxPoint x="-106.69" y="76" as="sourcePoint" />
            <mxPoint x="10.883593128807263" y="97.71572875253833" as="targetPoint" />
            <Array as="points">
              <mxPoint x="-106.69" y="124" />
            </Array>
          </mxGeometry>
        </mxCell>
        <mxCell id="9Zyja6iba0x6Raa5amca-93" value="" style="endArrow=circle;html=1;entryX=0.5;entryY=0;entryDx=0;entryDy=0;strokeWidth=2;strokeColor=#000000;endFill=1;exitX=0.5;exitY=1;exitDx=0;exitDy=0;" edge="1" parent="1" source="9Zyja6iba0x6Raa5amca-82" target="9Zyja6iba0x6Raa5amca-83">
          <mxGeometry width="50" height="50" relative="1" as="geometry">
            <mxPoint x="130.81" y="-187" as="sourcePoint" />
            <mxPoint x="200.81" y="-246" as="targetPoint" />
          </mxGeometry>
        </mxCell>
        <mxCell id="9Zyja6iba0x6Raa5amca-94" value="&lt;div&gt;Other&lt;br&gt;&lt;/div&gt;&lt;div&gt;Inputs&lt;/div&gt;" style="rounded=0;whiteSpace=wrap;html=1;fillColor=#6a00ff;strokeColor=#3700CC;fontColor=#ffffff;" vertex="1" parent="1">
          <mxGeometry x="-293.56" y="-69" width="70" height="55" as="geometry" />
        </mxCell>
        <mxCell id="9Zyja6iba0x6Raa5amca-95" value="" style="endArrow=classic;html=1;strokeColor=#000000;strokeWidth=2;exitX=1;exitY=0.5;exitDx=0;exitDy=0;entryX=0;entryY=0;entryDx=0;entryDy=0;" edge="1" parent="1" source="9Zyja6iba0x6Raa5amca-94" target="9Zyja6iba0x6Raa5amca-83">
          <mxGeometry width="50" height="50" relative="1" as="geometry">
            <mxPoint x="108.31" y="-37" as="sourcePoint" />
            <mxPoint x="158.31" y="-87" as="targetPoint" />
          </mxGeometry>
        </mxCell>
        <mxCell id="9Zyja6iba0x6Raa5amca-97" value="" style="endArrow=classic;html=1;strokeColor=#000000;strokeWidth=2;exitX=0.5;exitY=1;exitDx=0;exitDy=0;entryX=0;entryY=0;entryDx=0;entryDy=0;" edge="1" parent="1" source="9Zyja6iba0x6Raa5amca-94" target="9Zyja6iba0x6Raa5amca-84">
          <mxGeometry width="50" height="50" relative="1" as="geometry">
            <mxPoint x="88.31" y="-24.5" as="sourcePoint" />
            <mxPoint x="298.38359312880726" y="-25.28427124746213" as="targetPoint" />
          </mxGeometry>
        </mxCell>
        <mxCell id="9Zyja6iba0x6Raa5amca-98" value="&lt;div&gt;Mating&lt;/div&gt;&lt;div&gt;state&lt;br&gt;&lt;/div&gt;" style="rounded=0;whiteSpace=wrap;html=1;fillColor=#6a00ff;strokeColor=#3700CC;fontColor=#ffffff;" vertex="1" parent="1">
          <mxGeometry x="-286.69" y="-181.5" width="90" height="55" as="geometry" />
        </mxCell>
        <mxCell id="9Zyja6iba0x6Raa5amca-99" value="" style="endArrow=classic;html=1;strokeColor=#000000;strokeWidth=2;exitX=1;exitY=0.5;exitDx=0;exitDy=0;entryX=0;entryY=0.5;entryDx=0;entryDy=0;" edge="1" parent="1" source="9Zyja6iba0x6Raa5amca-98" target="9Zyja6iba0x6Raa5amca-82">
          <mxGeometry width="50" height="50" relative="1" as="geometry">
            <mxPoint x="125.81" y="3" as="sourcePoint" />
            <mxPoint x="188.38359312880726" y="84.71572875253787" as="targetPoint" />
          </mxGeometry>
        </mxCell>
        <mxCell id="9Zyja6iba0x6Raa5amca-101" value="" style="endArrow=box;startArrow=box;html=1;strokeColor=#b85450;strokeWidth=4;exitX=1;exitY=0.5;exitDx=0;exitDy=0;dashed=1;gradientColor=#ea6b66;fillColor=#f8cecc;startFill=0;endFill=0;" edge="1" parent="1" source="9Zyja6iba0x6Raa5amca-81" target="9Zyja6iba0x6Raa5amca-1">
          <mxGeometry width="50" height="50" relative="1" as="geometry">
            <mxPoint x="932" y="200" as="sourcePoint" />
            <mxPoint x="1231.08" y="85.84000000000015" as="targetPoint" />
          </mxGeometry>
        </mxCell>
        <mxCell id="9Zyja6iba0x6Raa5amca-102" value="" style="endArrow=box;startArrow=box;html=1;strokeColor=#b85450;strokeWidth=4;exitX=1;exitY=0.5;exitDx=0;exitDy=0;dashed=1;gradientColor=#ea6b66;fillColor=#f8cecc;startFill=0;endFill=0;entryX=0.006;entryY=0.559;entryDx=0;entryDy=0;entryPerimeter=0;" edge="1" parent="1" source="9Zyja6iba0x6Raa5amca-87" target="9Zyja6iba0x6Raa5amca-1">
          <mxGeometry width="50" height="50" relative="1" as="geometry">
            <mxPoint x="652" y="200" as="sourcePoint" />
            <mxPoint x="1230.9000000000005" y="85.84000000000015" as="targetPoint" />
          </mxGeometry>
        </mxCell>
        <mxCell id="9Zyja6iba0x6Raa5amca-103" value="" style="endArrow=box;startArrow=box;html=1;strokeColor=#b85450;strokeWidth=4;exitX=1;exitY=0.5;exitDx=0;exitDy=0;dashed=1;gradientColor=#ea6b66;fillColor=#f8cecc;startFill=0;endFill=0;entryX=0.017;entryY=0.572;entryDx=0;entryDy=0;entryPerimeter=0;" edge="1" parent="1" source="9Zyja6iba0x6Raa5amca-88" target="9Zyja6iba0x6Raa5amca-1">
          <mxGeometry width="50" height="50" relative="1" as="geometry">
            <mxPoint x="684.04" y="228.03999999999996" as="sourcePoint" />
            <mxPoint x="1190" y="60" as="targetPoint" />
          </mxGeometry>
        </mxCell>
        <mxCell id="9Zyja6iba0x6Raa5amca-105" value="Clowney 2015" style="rounded=1;whiteSpace=wrap;html=1;gradientColor=#ffa500;fillColor=#ffcd28;strokeColor=#d79b00;fontColor=#000000;" vertex="1" parent="1">
          <mxGeometry x="1299" y="1120" width="120" height="30" as="geometry" />
        </mxCell>
        <mxCell id="9Zyja6iba0x6Raa5amca-106" value="Kuo 2015" style="rounded=1;whiteSpace=wrap;html=1;gradientColor=#ffa500;fillColor=#ffcd28;strokeColor=#d79b00;fontColor=#000000;" vertex="1" parent="1">
          <mxGeometry x="-91.19" y="281" width="120" height="30" as="geometry" />
        </mxCell>
        <mxCell id="9Zyja6iba0x6Raa5amca-108" value="Zhang SX 2019" style="rounded=1;whiteSpace=wrap;html=1;gradientColor=#ffa500;fillColor=#ffcd28;strokeColor=#d79b00;fontColor=#000000;rotation=-85;" vertex="1" parent="1">
          <mxGeometry x="-390" y="-130" width="185.5" height="30" as="geometry" />
        </mxCell>
        <mxCell id="9Zyja6iba0x6Raa5amca-109" value="Zhang SX 2016" style="rounded=1;whiteSpace=wrap;html=1;gradientColor=#ffa500;fillColor=#ffcd28;strokeColor=#d79b00;fontColor=#000000;rotation=-86;" vertex="1" parent="1">
          <mxGeometry x="-1.6899999999999977" y="71" width="180.5" height="30" as="geometry" />
        </mxCell>
        <mxCell id="9Zyja6iba0x6Raa5amca-110" value="McKellar 2019" style="rounded=1;whiteSpace=wrap;html=1;gradientColor=#ffa500;fillColor=#ffcd28;strokeColor=#d79b00;fontColor=#000000;" vertex="1" parent="1">
          <mxGeometry x="2008" y="311" width="120" height="30" as="geometry" />
        </mxCell>
        <mxCell id="9Zyja6iba0x6Raa5amca-112" value="Namiki 2018" style="rounded=1;whiteSpace=wrap;html=1;gradientColor=#ffa500;fillColor=#ffcd28;strokeColor=#d79b00;fontColor=#000000;" vertex="1" parent="1">
          <mxGeometry x="1875" y="-630" width="120" height="30" as="geometry" />
        </mxCell>
        <mxCell id="9Zyja6iba0x6Raa5amca-113" value="&lt;div&gt;IR52c&lt;/div&gt;&lt;div&gt;IR52d&lt;/div&gt;&lt;div&gt;(male forelegs)&lt;br&gt;&lt;/div&gt;" style="ellipse;whiteSpace=wrap;html=1;rounded=1;shadow=1;comic=0;labelBackgroundColor=none;strokeWidth=2;fontFamily=Verdana;fontSize=12;align=center;gradientColor=#ea6b66;fillColor=#f8cecc;strokeColor=#b85450;" vertex="1" parent="1">
          <mxGeometry x="129" y="357" width="120" height="80" as="geometry" />
        </mxCell>
        <mxCell id="9Zyja6iba0x6Raa5amca-114" value="Koh 2014" style="rounded=1;whiteSpace=wrap;html=1;gradientColor=#ffa500;fillColor=#ffcd28;strokeColor=#d79b00;fontColor=#000000;" vertex="1" parent="1">
          <mxGeometry x="24.5" y="352" width="120" height="30" as="geometry" />
        </mxCell>
        <mxCell id="9Zyja6iba0x6Raa5amca-115" value="&lt;div&gt;Gr32a&lt;/div&gt;&lt;div&gt;(male tarsi)&lt;br&gt;&lt;/div&gt;" style="ellipse;whiteSpace=wrap;html=1;rounded=1;shadow=1;comic=0;labelBackgroundColor=none;strokeWidth=2;fontFamily=Verdana;fontSize=12;align=center;gradientColor=#ea6b66;fillColor=#f8cecc;strokeColor=#b85450;" vertex="1" parent="1">
          <mxGeometry x="224.5" y="1116.75" width="120" height="80" as="geometry" />
        </mxCell>
        <mxCell id="9Zyja6iba0x6Raa5amca-130" value="Miyamoto 2008" style="rounded=1;whiteSpace=wrap;html=1;gradientColor=#ffa500;fillColor=#ffcd28;strokeColor=#d79b00;fontColor=#000000;" vertex="1" parent="1">
          <mxGeometry x="137.75" y="1180" width="120" height="30" as="geometry" />
        </mxCell>
        <mxCell id="9Zyja6iba0x6Raa5amca-132" value="sex-specific elements" style="rhombus;whiteSpace=wrap;html=1;fontSize=12;fontColor=#ffffff;fontFamily=Verdana;fillColor=#6a00ff;fontStyle=0;strokeColor=#3700CC;" vertex="1" parent="1">
          <mxGeometry x="1280" y="-460" width="128" height="100" as="geometry" />
        </mxCell>
        <mxCell id="9Zyja6iba0x6Raa5amca-134" value="" style="endArrow=box;startArrow=box;html=1;strokeColor=#b85450;strokeWidth=4;exitX=0.5;exitY=0;exitDx=0;exitDy=0;entryX=0;entryY=1;entryDx=0;entryDy=0;dashed=1;gradientColor=#ea6b66;fillColor=#f8cecc;startFill=0;endFill=0;" edge="1" parent="1" source="9Zyja6iba0x6Raa5amca-132" target="9Zyja6iba0x6Raa5amca-19">
          <mxGeometry width="50" height="50" relative="1" as="geometry">
            <mxPoint x="1125" y="-579.96" as="sourcePoint" />
            <mxPoint x="1458.5535931288068" y="-839.9957287525381" as="targetPoint" />
          </mxGeometry>
        </mxCell>
        <mxCell id="9Zyja6iba0x6Raa5amca-135" value="" style="endArrow=box;startArrow=box;html=1;strokeColor=#b85450;strokeWidth=4;entryX=0.5;entryY=1;entryDx=0;entryDy=0;dashed=1;gradientColor=#ea6b66;fillColor=#f8cecc;startFill=0;endFill=0;exitX=0.621;exitY=0;exitDx=0;exitDy=0;exitPerimeter=0;" edge="1" parent="1" source="9Zyja6iba0x6Raa5amca-1" target="9Zyja6iba0x6Raa5amca-132">
          <mxGeometry width="50" height="50" relative="1" as="geometry">
            <mxPoint x="1330" y="27" as="sourcePoint" />
            <mxPoint x="1442" y="-275" as="targetPoint" />
          </mxGeometry>
        </mxCell>
        <mxCell id="9Zyja6iba0x6Raa5amca-131" value="&lt;div&gt;Toda 2012&lt;/div&gt;&lt;div&gt;discussion&lt;/div&gt;" style="rounded=1;whiteSpace=wrap;html=1;gradientColor=#ffa500;fillColor=#ffcd28;strokeColor=#d79b00;fontColor=#000000;" vertex="1" parent="1">
          <mxGeometry x="1475" y="-640" width="122" height="40" as="geometry" />
        </mxCell>
        <mxCell id="9Zyja6iba0x6Raa5amca-138" value="&lt;div&gt;Gr68a GSN&lt;br&gt;&lt;/div&gt;&lt;div&gt;(male tarsi)&lt;br&gt;&lt;/div&gt;" style="ellipse;whiteSpace=wrap;html=1;rounded=1;shadow=1;comic=0;labelBackgroundColor=none;strokeWidth=2;fontFamily=Verdana;fontSize=12;align=center;gradientColor=#ea6b66;fillColor=#f8cecc;strokeColor=#b85450;" vertex="1" parent="1">
          <mxGeometry x="250" y="957.75" width="120" height="80" as="geometry" />
        </mxCell>
        <mxCell id="9Zyja6iba0x6Raa5amca-141" value="&lt;div&gt;Gr66a&lt;/div&gt;&lt;div&gt;(mainly labella, also maletarsi)&lt;br&gt;&lt;/div&gt;" style="ellipse;whiteSpace=wrap;html=1;rounded=1;shadow=1;comic=0;labelBackgroundColor=none;strokeWidth=2;fontFamily=Verdana;fontSize=12;align=center;gradientColor=#ea6b66;fillColor=#f8cecc;strokeColor=#b85450;" vertex="1" parent="1">
          <mxGeometry x="729.25" y="1308.31" width="140" height="80" as="geometry" />
        </mxCell>
        <mxCell id="9Zyja6iba0x6Raa5amca-129" value="Moon 2009" style="rounded=1;whiteSpace=wrap;html=1;gradientColor=#ffa500;fillColor=#ffcd28;strokeColor=#d79b00;fontColor=#000000;" vertex="1" parent="1">
          <mxGeometry x="499.25" y="1481.56" width="120" height="30" as="geometry" />
        </mxCell>
        <mxCell id="9Zyja6iba0x6Raa5amca-143" value="&lt;font style=&quot;font-size: 12px&quot;&gt;no m-m CI effect after ablation&lt;/font&gt; (Miyamoto 2008)" style="rounded=0;whiteSpace=wrap;html=1;fontFamily=Verdana;fontSize=12;fillColor=#0050ef;strokeColor=#001DBC;fontColor=#ffffff;" vertex="1" parent="1">
          <mxGeometry x="779.25" y="1380.56" width="162.5" height="50" as="geometry" />
        </mxCell>
        <mxCell id="9Zyja6iba0x6Raa5amca-145" value="ablation increased CI towards beheaded males (Miyamoto 2008)" style="rounded=0;whiteSpace=wrap;html=1;fontFamily=Verdana;fontSize=12;fillColor=#0050ef;strokeColor=#001DBC;fontColor=#ffffff;" vertex="1" parent="1">
          <mxGeometry x="87.5" y="1085.75" width="184.5" height="50" as="geometry" />
        </mxCell>
        <mxCell id="9Zyja6iba0x6Raa5amca-147" value="&lt;div&gt;2nd order fru+&lt;/div&gt;&lt;div&gt;in SEZ&lt;br&gt;&lt;/div&gt;&lt;div&gt;(maybe dMS-b)&lt;/div&gt;" style="ellipse;whiteSpace=wrap;html=1;rounded=1;shadow=1;comic=0;labelBackgroundColor=none;strokeWidth=2;fontFamily=Verdana;fontSize=12;align=center;fillColor=#6a00ff;strokeColor=#3700CC;fontColor=#ffffff;" vertex="1" parent="1">
          <mxGeometry x="761.5" y="760" width="148.5" height="130" as="geometry" />
        </mxCell>
        <mxCell id="9Zyja6iba0x6Raa5amca-148" value="" style="endArrow=box;startArrow=box;html=1;strokeColor=#b85450;strokeWidth=2;dashed=1;gradientColor=#ea6b66;fillColor=#f8cecc;startFill=0;endFill=0;entryX=0.038;entryY=0.738;entryDx=0;entryDy=0;entryPerimeter=0;exitX=0.808;exitY=0.063;exitDx=0;exitDy=0;exitPerimeter=0;" edge="1" parent="1" source="9Zyja6iba0x6Raa5amca-115" target="9Zyja6iba0x6Raa5amca-147">
          <mxGeometry width="50" height="50" relative="1" as="geometry">
            <mxPoint x="559" y="1020" as="sourcePoint" />
            <mxPoint x="750" y="910" as="targetPoint" />
            <Array as="points">
              <mxPoint x="430" y="1080" />
            </Array>
          </mxGeometry>
        </mxCell>
        <mxCell id="9Zyja6iba0x6Raa5amca-149" value="" style="endArrow=box;startArrow=box;html=1;strokeColor=#b85450;strokeWidth=4;dashed=1;gradientColor=#ea6b66;fillColor=#f8cecc;startFill=0;endFill=0;entryX=0.03;entryY=0.745;entryDx=0;entryDy=0;exitX=0.987;exitY=0.42;exitDx=0;exitDy=0;entryPerimeter=0;exitPerimeter=0;" edge="1" parent="1" source="9Zyja6iba0x6Raa5amca-214" target="9Zyja6iba0x6Raa5amca-147">
          <mxGeometry width="50" height="50" relative="1" as="geometry">
            <mxPoint x="520" y="936" as="sourcePoint" />
            <mxPoint x="710" y="920" as="targetPoint" />
          </mxGeometry>
        </mxCell>
        <mxCell id="9Zyja6iba0x6Raa5amca-144" value="mutation increased CI towards beheaded males (Moon 2009)" style="rounded=0;whiteSpace=wrap;html=1;fontFamily=Verdana;fontSize=12;fillColor=#0050ef;strokeColor=#001DBC;fontColor=#ffffff;" vertex="1" parent="1">
          <mxGeometry x="522.25" y="1390.56" width="150" height="50" as="geometry" />
        </mxCell>
        <mxCell id="9Zyja6iba0x6Raa5amca-151" value="&lt;div&gt;Gr68a MSN&lt;br&gt;&lt;/div&gt;&lt;div&gt;(male tarsi)&lt;br&gt;&lt;/div&gt;" style="ellipse;whiteSpace=wrap;html=1;rounded=1;shadow=1;comic=0;labelBackgroundColor=none;strokeWidth=2;fontFamily=Verdana;fontSize=12;align=center;gradientColor=#ea6b66;fillColor=#f8cecc;strokeColor=#b85450;" vertex="1" parent="1">
          <mxGeometry x="250" y="880" width="120" height="80" as="geometry" />
        </mxCell>
        <mxCell id="9Zyja6iba0x6Raa5amca-155" value="&lt;div&gt;Motion Cues&lt;/div&gt;&lt;div&gt;(mechanosensory)&lt;br&gt;&lt;/div&gt;" style="rounded=0;whiteSpace=wrap;html=1;fillColor=#6a00ff;strokeColor=#3700CC;fontColor=#ffffff;" vertex="1" parent="1">
          <mxGeometry x="-18.939999999999998" y="822.88" width="114.5" height="60" as="geometry" />
        </mxCell>
        <mxCell id="9Zyja6iba0x6Raa5amca-156" value="" style="endArrow=classic;html=1;strokeWidth=2;strokeColor=#000000;exitX=1;exitY=0.5;exitDx=0;exitDy=0;entryX=0;entryY=0;entryDx=0;entryDy=0;" edge="1" parent="1" source="9Zyja6iba0x6Raa5amca-155" target="9Zyja6iba0x6Raa5amca-151">
          <mxGeometry width="50" height="50" relative="1" as="geometry">
            <mxPoint x="140" y="882.6700000000001" as="sourcePoint" />
            <mxPoint x="339.52" y="815.75" as="targetPoint" />
          </mxGeometry>
        </mxCell>
        <mxCell id="9Zyja6iba0x6Raa5amca-159" value="" style="endArrow=box;startArrow=box;html=1;strokeColor=#b85450;strokeWidth=4;dashed=1;gradientColor=#ea6b66;fillColor=#f8cecc;startFill=0;endFill=0;exitX=0.987;exitY=0.407;exitDx=0;exitDy=0;entryX=0.118;entryY=0.852;entryDx=0;entryDy=0;entryPerimeter=0;exitPerimeter=0;" edge="1" parent="1" source="9Zyja6iba0x6Raa5amca-214" target="9Zyja6iba0x6Raa5amca-2">
          <mxGeometry width="50" height="50" relative="1" as="geometry">
            <mxPoint x="517.5" y="932" as="sourcePoint" />
            <mxPoint x="910" y="820" as="targetPoint" />
            <Array as="points">
              <mxPoint x="830" y="730" />
            </Array>
          </mxGeometry>
        </mxCell>
        <mxCell id="9Zyja6iba0x6Raa5amca-160" value="" style="endArrow=box;startArrow=box;html=1;strokeColor=#b85450;strokeWidth=2;dashed=1;gradientColor=#ea6b66;fillColor=#f8cecc;startFill=0;endFill=0;entryX=0.366;entryY=1.029;entryDx=0;entryDy=0;entryPerimeter=0;exitX=0.94;exitY=0.208;exitDx=0;exitDy=0;exitPerimeter=0;" edge="1" parent="1" source="9Zyja6iba0x6Raa5amca-115" target="9Zyja6iba0x6Raa5amca-2">
          <mxGeometry width="50" height="50" relative="1" as="geometry">
            <mxPoint x="519.5501370585621" y="1019.0250958263182" as="sourcePoint" />
            <mxPoint x="880" y="850" as="targetPoint" />
            <Array as="points">
              <mxPoint x="440" y="1090" />
              <mxPoint x="880" y="980" />
              <mxPoint x="960" y="820" />
            </Array>
          </mxGeometry>
        </mxCell>
        <mxCell id="9Zyja6iba0x6Raa5amca-150" value="Cachero 2010" style="rounded=1;whiteSpace=wrap;html=1;gradientColor=#ffa500;fillColor=#ffcd28;strokeColor=#d79b00;fontColor=#000000;rotation=35;" vertex="1" parent="1">
          <mxGeometry x="779.25" y="760" width="210" height="30" as="geometry" />
        </mxCell>
        <mxCell id="9Zyja6iba0x6Raa5amca-121" value="Koganezawa 2010" style="rounded=1;whiteSpace=wrap;html=1;gradientColor=#ffa500;fillColor=#ffcd28;strokeColor=#d79b00;fontColor=#000000;" vertex="1" parent="1">
          <mxGeometry x="790" y="875" width="120" height="30" as="geometry" />
        </mxCell>
        <mxCell id="9Zyja6iba0x6Raa5amca-162" value="Fan 2013" style="rounded=1;whiteSpace=wrap;html=1;gradientColor=#ffa500;fillColor=#ffcd28;strokeColor=#d79b00;fontColor=#000000;rotation=30;" vertex="1" parent="1">
          <mxGeometry x="375.87" y="1070" width="98" height="30" as="geometry" />
        </mxCell>
        <mxCell id="9Zyja6iba0x6Raa5amca-164" value="" style="endArrow=box;startArrow=box;html=1;strokeColor=#b85450;strokeWidth=2;dashed=1;gradientColor=#ea6b66;fillColor=#f8cecc;startFill=0;endFill=0;entryX=0.354;entryY=1;entryDx=0;entryDy=0;entryPerimeter=0;exitX=0.479;exitY=0.003;exitDx=0;exitDy=0;exitPerimeter=0;" edge="1" parent="1" source="9Zyja6iba0x6Raa5amca-169" target="9Zyja6iba0x6Raa5amca-2">
          <mxGeometry width="50" height="50" relative="1" as="geometry">
            <mxPoint x="610" y="1240" as="sourcePoint" />
            <mxPoint x="1100.22" y="610.0000000000001" as="targetPoint" />
            <Array as="points">
              <mxPoint x="1040" y="870" />
            </Array>
          </mxGeometry>
        </mxCell>
        <mxCell id="9Zyja6iba0x6Raa5amca-165" value="" style="endArrow=box;startArrow=box;html=1;strokeColor=#b85450;strokeWidth=4;dashed=1;gradientColor=#ea6b66;fillColor=#f8cecc;startFill=0;endFill=0;entryX=0.033;entryY=0.732;entryDx=0;entryDy=0;entryPerimeter=0;exitX=0.456;exitY=-0.013;exitDx=0;exitDy=0;exitPerimeter=0;" edge="1" parent="1" source="9Zyja6iba0x6Raa5amca-169" target="9Zyja6iba0x6Raa5amca-147">
          <mxGeometry width="50" height="50" relative="1" as="geometry">
            <mxPoint x="530" y="1300" as="sourcePoint" />
            <mxPoint x="777.6864999999998" y="871.02" as="targetPoint" />
          </mxGeometry>
        </mxCell>
        <mxCell id="9Zyja6iba0x6Raa5amca-119" value="Lacaille 2007" style="rounded=1;whiteSpace=wrap;html=1;gradientColor=#ffa500;fillColor=#ffcd28;strokeColor=#d79b00;fontColor=#000000;" vertex="1" parent="1">
          <mxGeometry x="619.25" y="1350.56" width="120" height="30" as="geometry" />
        </mxCell>
        <mxCell id="9Zyja6iba0x6Raa5amca-166" value="mutant increases CI towards immobile males, but no effect towards females (Lacaille 2007)" style="rounded=0;whiteSpace=wrap;html=1;fontFamily=Verdana;fontSize=12;fillColor=#0050ef;strokeColor=#001DBC;fontColor=#ffffff;" vertex="1" parent="1">
          <mxGeometry x="829.25" y="1257.31" width="190" height="71" as="geometry" />
        </mxCell>
        <mxCell id="9Zyja6iba0x6Raa5amca-167" value="Moon 2009" style="rounded=1;whiteSpace=wrap;html=1;gradientColor=#ffa500;fillColor=#ffcd28;strokeColor=#d79b00;fontColor=#000000;" vertex="1" parent="1">
          <mxGeometry x="619.25" y="1316.06" width="120" height="30" as="geometry" />
        </mxCell>
        <mxCell id="9Zyja6iba0x6Raa5amca-170" value="all Gr33a expressing GRNs expressed Gr66a and vice versa. (Moon 2009)" style="rounded=0;whiteSpace=wrap;html=1;fontFamily=Verdana;fontSize=12;fillColor=#0050ef;strokeColor=#001DBC;fontColor=#ffffff;" vertex="1" parent="1">
          <mxGeometry x="604.25" y="1530.56" width="190" height="71" as="geometry" />
        </mxCell>
        <mxCell id="9Zyja6iba0x6Raa5amca-171" value="Kallman 2015" style="rounded=1;whiteSpace=wrap;html=1;gradientColor=#ffa500;fillColor=#ffcd28;strokeColor=#d79b00;fontColor=#000000;rotation=45;" vertex="1" parent="1">
          <mxGeometry x="158.31" y="533" width="120" height="30" as="geometry" />
        </mxCell>
        <mxCell id="9Zyja6iba0x6Raa5amca-173" value="" style="endArrow=box;startArrow=box;html=1;strokeColor=#b85450;strokeWidth=4;dashed=1;gradientColor=#ea6b66;fillColor=#f8cecc;startFill=0;endFill=0;exitX=1;exitY=0.5;exitDx=0;exitDy=0;entryX=0.375;entryY=0.983;entryDx=0;entryDy=0;entryPerimeter=0;" edge="1" parent="1" source="9Zyja6iba0x6Raa5amca-115" target="9Zyja6iba0x6Raa5amca-1">
          <mxGeometry width="50" height="50" relative="1" as="geometry">
            <mxPoint x="495.1400000000003" y="1350.6899999999996" as="sourcePoint" />
            <mxPoint x="1190" y="631" as="targetPoint" />
            <Array as="points">
              <mxPoint x="1110" y="990" />
            </Array>
          </mxGeometry>
        </mxCell>
        <mxCell id="9Zyja6iba0x6Raa5amca-174" value="Similar expression in VP between PPN1 (Kallman 2015) and Gr32a (Miyamoto 2008). Potentially target P1?" style="rounded=0;whiteSpace=wrap;html=1;fontFamily=Verdana;fontSize=12;fillColor=#0050ef;strokeColor=#001DBC;fontColor=#ffffff;" vertex="1" parent="1">
          <mxGeometry x="962" y="960" width="200" height="67" as="geometry" />
        </mxCell>
        <mxCell id="9Zyja6iba0x6Raa5amca-175" value="&lt;div&gt;IR52a&lt;/div&gt;&lt;div&gt;(wings)&lt;/div&gt;" style="ellipse;whiteSpace=wrap;html=1;rounded=1;shadow=1;comic=0;labelBackgroundColor=none;strokeWidth=2;fontFamily=Verdana;fontSize=12;align=center;gradientColor=#ea6b66;fillColor=#f8cecc;strokeColor=#b85450;" vertex="1" parent="1">
          <mxGeometry x="250" y="742.88" width="120" height="80" as="geometry" />
        </mxCell>
        <mxCell id="9Zyja6iba0x6Raa5amca-178" value="He 2019" style="rounded=1;whiteSpace=wrap;html=1;gradientColor=#ffa500;fillColor=#ffcd28;strokeColor=#d79b00;fontColor=#000000;" vertex="1" parent="1">
          <mxGeometry x="150" y="783.63" width="120" height="30" as="geometry" />
        </mxCell>
        <mxCell id="9Zyja6iba0x6Raa5amca-179" value="" style="endArrow=box;startArrow=box;html=1;strokeColor=#b85450;strokeWidth=4;dashed=1;gradientColor=#ea6b66;fillColor=#f8cecc;startFill=0;endFill=0;entryX=0.03;entryY=0.745;entryDx=0;entryDy=0;entryPerimeter=0;" edge="1" parent="1" source="9Zyja6iba0x6Raa5amca-175">
          <mxGeometry width="50" height="50" relative="1" as="geometry">
            <mxPoint x="370.0000000000043" y="997.75" as="sourcePoint" />
            <mxPoint x="765.9549999999999" y="856.8499999999999" as="targetPoint" />
          </mxGeometry>
        </mxCell>
        <mxCell id="9Zyja6iba0x6Raa5amca-181" value="Pheromones" style="rounded=0;whiteSpace=wrap;html=1;" vertex="1" parent="1">
          <mxGeometry x="-310" y="1100" width="90" height="55" as="geometry" />
        </mxCell>
        <mxCell id="9Zyja6iba0x6Raa5amca-183" value="" style="endArrow=classic;html=1;strokeWidth=2;strokeColor=#000000;entryX=0.011;entryY=0.335;entryDx=0;entryDy=0;exitX=1;exitY=0.5;exitDx=0;exitDy=0;entryPerimeter=0;" edge="1" parent="1" source="9Zyja6iba0x6Raa5amca-181" target="9Zyja6iba0x6Raa5amca-175">
          <mxGeometry width="50" height="50" relative="1" as="geometry">
            <mxPoint x="-40" y="730" as="sourcePoint" />
            <mxPoint x="264.50359312880727" y="761.9657287525379" as="targetPoint" />
            <Array as="points">
              <mxPoint x="-170" y="1128" />
              <mxPoint x="-170" y="770" />
            </Array>
          </mxGeometry>
        </mxCell>
        <mxCell id="9Zyja6iba0x6Raa5amca-184" value="" style="endArrow=classic;html=1;strokeWidth=2;strokeColor=#000000;exitX=1;exitY=0.5;exitDx=0;exitDy=0;entryX=0.017;entryY=0.603;entryDx=0;entryDy=0;entryPerimeter=0;" edge="1" parent="1" source="9Zyja6iba0x6Raa5amca-181" target="9Zyja6iba0x6Raa5amca-138">
          <mxGeometry width="50" height="50" relative="1" as="geometry">
            <mxPoint x="140" y="860.75" as="sourcePoint" />
            <mxPoint x="120" y="1020" as="targetPoint" />
            <Array as="points">
              <mxPoint x="-170" y="1128" />
            </Array>
          </mxGeometry>
        </mxCell>
        <mxCell id="9Zyja6iba0x6Raa5amca-185" value="" style="endArrow=classic;html=1;strokeWidth=2;strokeColor=#000000;exitX=1;exitY=0.5;exitDx=0;exitDy=0;entryX=0;entryY=0.5;entryDx=0;entryDy=0;" edge="1" parent="1" source="9Zyja6iba0x6Raa5amca-181" target="9Zyja6iba0x6Raa5amca-115">
          <mxGeometry width="50" height="50" relative="1" as="geometry">
            <mxPoint x="-20" y="1010" as="sourcePoint" />
            <mxPoint x="190" y="1230" as="targetPoint" />
            <Array as="points">
              <mxPoint x="-170" y="1128" />
            </Array>
          </mxGeometry>
        </mxCell>
        <mxCell id="9Zyja6iba0x6Raa5amca-186" value="" style="endArrow=classic;html=1;strokeWidth=2;strokeColor=#000000;exitX=1;exitY=0.5;exitDx=0;exitDy=0;entryX=0.028;entryY=0.32;entryDx=0;entryDy=0;entryPerimeter=0;" edge="1" parent="1" source="9Zyja6iba0x6Raa5amca-181" target="9Zyja6iba0x6Raa5amca-169">
          <mxGeometry width="50" height="50" relative="1" as="geometry">
            <mxPoint x="-10" y="1090" as="sourcePoint" />
            <mxPoint x="310" y="1390" as="targetPoint" />
            <Array as="points">
              <mxPoint x="-170" y="1128" />
            </Array>
          </mxGeometry>
        </mxCell>
        <mxCell id="9Zyja6iba0x6Raa5amca-188" value="" style="endArrow=classic;html=1;entryX=0;entryY=0.5;entryDx=0;entryDy=0;strokeWidth=2;strokeColor=#000000;exitX=0.5;exitY=0;exitDx=0;exitDy=0;" edge="1" parent="1" source="9Zyja6iba0x6Raa5amca-181" target="9Zyja6iba0x6Raa5amca-4">
          <mxGeometry width="50" height="50" relative="1" as="geometry">
            <mxPoint x="-280" y="640" as="sourcePoint" />
            <mxPoint x="-55.629999999966344" y="690" as="targetPoint" />
            <Array as="points">
              <mxPoint x="-265" y="575" />
            </Array>
          </mxGeometry>
        </mxCell>
        <mxCell id="9Zyja6iba0x6Raa5amca-191" value="7T" style="triangle;whiteSpace=wrap;html=1;strokeColor=#005700;strokeWidth=3;fillColor=#008a00;fontFamily=Verdana;fontSize=12;fontColor=#ffffff;direction=north;" vertex="1" parent="1">
          <mxGeometry x="3.87" y="1116.75" width="80" height="60" as="geometry" />
        </mxCell>
        <mxCell id="9Zyja6iba0x6Raa5amca-193" value="CH503" style="triangle;whiteSpace=wrap;html=1;strokeColor=#005700;strokeWidth=3;fillColor=#008a00;fontFamily=Verdana;fontSize=12;fontColor=#ffffff;direction=north;verticalAlign=middle;labelPosition=center;verticalLabelPosition=middle;align=center;spacingTop=10;" vertex="1" parent="1">
          <mxGeometry x="-1.6899999999999995" y="1025.75" width="80" height="60" as="geometry" />
        </mxCell>
        <mxCell id="9Zyja6iba0x6Raa5amca-194" value="9T" style="triangle;whiteSpace=wrap;html=1;strokeColor=#005700;strokeWidth=3;fillColor=#008a00;fontFamily=Verdana;fontSize=12;fontColor=#ffffff;direction=north;" vertex="1" parent="1">
          <mxGeometry x="30" y="1150" width="80" height="60" as="geometry" />
        </mxCell>
        <mxCell id="9Zyja6iba0x6Raa5amca-195" value="11P" style="triangle;whiteSpace=wrap;html=1;strokeColor=#005700;strokeWidth=3;fillColor=#008a00;fontFamily=Verdana;fontSize=12;fontColor=#ffffff;direction=north;" vertex="1" parent="1">
          <mxGeometry x="57.75" y="1176.75" width="80" height="60" as="geometry" />
        </mxCell>
        <mxCell id="9Zyja6iba0x6Raa5amca-196" value="7T" style="triangle;whiteSpace=wrap;html=1;strokeColor=#005700;strokeWidth=3;fillColor=#008a00;fontFamily=Verdana;fontSize=12;fontColor=#ffffff;direction=north;" vertex="1" parent="1">
          <mxGeometry x="370" y="1273.81" width="80" height="60" as="geometry" />
        </mxCell>
        <mxCell id="9Zyja6iba0x6Raa5amca-197" value="9T" style="triangle;whiteSpace=wrap;html=1;strokeColor=#005700;strokeWidth=3;fillColor=#008a00;fontFamily=Verdana;fontSize=12;fontColor=#ffffff;direction=north;" vertex="1" parent="1">
          <mxGeometry x="396.5" y="1293.81" width="80" height="60" as="geometry" />
        </mxCell>
        <mxCell id="9Zyja6iba0x6Raa5amca-198" value="11P" style="triangle;whiteSpace=wrap;html=1;strokeColor=#005700;strokeWidth=3;fillColor=#008a00;fontFamily=Verdana;fontSize=12;fontColor=#ffffff;direction=north;" vertex="1" parent="1">
          <mxGeometry x="424.25" y="1320.56" width="80" height="60" as="geometry" />
        </mxCell>
        <mxCell id="9Zyja6iba0x6Raa5amca-199" value="7T" style="triangle;whiteSpace=wrap;html=1;strokeColor=#005700;strokeWidth=3;fillColor=#008a00;fontFamily=Verdana;fontSize=12;fontColor=#ffffff;direction=north;" vertex="1" parent="1">
          <mxGeometry x="10.560000000000002" y="528" width="80" height="60" as="geometry" />
        </mxCell>
        <mxCell id="9Zyja6iba0x6Raa5amca-200" value="cVA" style="triangle;whiteSpace=wrap;html=1;strokeColor=#005700;strokeWidth=3;fillColor=#008a00;fontFamily=Verdana;fontSize=12;fontColor=#ffffff;direction=north;" vertex="1" parent="1">
          <mxGeometry x="36.69" y="561.25" width="80" height="60" as="geometry" />
        </mxCell>
        <mxCell id="9Zyja6iba0x6Raa5amca-201" value="7,11ND" style="triangle;whiteSpace=wrap;html=1;strokeColor=#005700;strokeWidth=3;fillColor=#008a00;fontFamily=Verdana;fontSize=12;fontColor=#ffffff;direction=north;spacingTop=10;" vertex="1" parent="1">
          <mxGeometry x="44.43000000000001" y="448" width="80" height="60" as="geometry" />
        </mxCell>
        <mxCell id="9Zyja6iba0x6Raa5amca-202" value="7,11HD" style="triangle;whiteSpace=wrap;html=1;strokeColor=#005700;strokeWidth=3;fillColor=#008a00;fontFamily=Verdana;fontSize=12;fontColor=#ffffff;direction=north;spacingTop=10;" vertex="1" parent="1">
          <mxGeometry x="70.56" y="481.25" width="80" height="60" as="geometry" />
        </mxCell>
        <mxCell id="9Zyja6iba0x6Raa5amca-203" value="?" style="triangle;whiteSpace=wrap;html=1;strokeColor=#3700CC;strokeWidth=3;fillColor=#6a00ff;fontFamily=Verdana;fontSize=12;fontColor=#ffffff;direction=north;" vertex="1" parent="1">
          <mxGeometry x="212.24999999999994" y="311" width="80" height="60" as="geometry" />
        </mxCell>
        <mxCell id="9Zyja6iba0x6Raa5amca-204" value="Shankar S 2015" style="rounded=1;whiteSpace=wrap;html=1;gradientColor=#ffa500;fillColor=#ffcd28;strokeColor=#d79b00;fontColor=#000000;" vertex="1" parent="1">
          <mxGeometry x="-70" y="1009" width="120" height="30" as="geometry" />
        </mxCell>
        <mxCell id="9Zyja6iba0x6Raa5amca-208" value="&lt;div&gt;c929-Gal4&lt;/div&gt;&lt;div&gt;(TK+)&lt;/div&gt;&lt;div&gt;in SEZ&lt;br&gt;&lt;/div&gt;" style="ellipse;whiteSpace=wrap;html=1;rounded=1;shadow=1;comic=0;labelBackgroundColor=none;strokeWidth=2;fontFamily=Verdana;fontSize=12;align=center;fillColor=#6a00ff;strokeColor=#3700CC;fontColor=#ffffff;" vertex="1" parent="1">
          <mxGeometry x="486.87000000000006" y="662.88" width="120" height="80" as="geometry" />
        </mxCell>
        <mxCell id="9Zyja6iba0x6Raa5amca-210" value="" style="endArrow=classic;html=1;strokeWidth=2;strokeColor=#b85450;exitX=1;exitY=0.343;exitDx=0;exitDy=0;dashed=1;gradientColor=#ea6b66;fillColor=#f8cecc;entryX=0.201;entryY=0.914;entryDx=0;entryDy=0;entryPerimeter=0;exitPerimeter=0;" edge="1" parent="1" source="9Zyja6iba0x6Raa5amca-214" target="9Zyja6iba0x6Raa5amca-208">
          <mxGeometry width="50" height="50" relative="1" as="geometry">
            <mxPoint x="370.00000000001364" y="920" as="sourcePoint" />
            <mxPoint x="1268.2600000000002" y="128.03499999999985" as="targetPoint" />
            <Array as="points" />
          </mxGeometry>
        </mxCell>
        <mxCell id="9Zyja6iba0x6Raa5amca-207" value="Shankar S 2015" style="rounded=1;whiteSpace=wrap;html=1;gradientColor=#ffa500;fillColor=#ffcd28;strokeColor=#d79b00;fontColor=#000000;" vertex="1" parent="1">
          <mxGeometry x="587.6200000000001" y="662.88" width="120" height="30" as="geometry" />
        </mxCell>
        <mxCell id="9Zyja6iba0x6Raa5amca-211" value="" style="endArrow=classic;html=1;strokeWidth=2;strokeColor=#b85450;exitX=1.017;exitY=0.573;exitDx=0;exitDy=0;dashed=1;gradientColor=#ea6b66;fillColor=#f8cecc;entryX=0.234;entryY=0.051;entryDx=0;entryDy=0;entryPerimeter=0;exitPerimeter=0;" edge="1" parent="1" source="9Zyja6iba0x6Raa5amca-9" target="9Zyja6iba0x6Raa5amca-208">
          <mxGeometry width="50" height="50" relative="1" as="geometry">
            <mxPoint x="293.8100000000091" y="886.11" as="sourcePoint" />
            <mxPoint x="651.9000000000001" y="626.0000000000003" as="targetPoint" />
            <Array as="points" />
          </mxGeometry>
        </mxCell>
        <mxCell id="9Zyja6iba0x6Raa5amca-212" value="metabolic stress" style="rounded=0;whiteSpace=wrap;html=1;fillColor=#6a00ff;strokeColor=#3700CC;fontColor=#ffffff;" vertex="1" parent="1">
          <mxGeometry x="78.31" y="690" width="70" height="50" as="geometry" />
        </mxCell>
        <mxCell id="9Zyja6iba0x6Raa5amca-213" value="" style="endArrow=classic;html=1;strokeWidth=2;strokeColor=#b85450;exitX=0.996;exitY=0.419;exitDx=0;exitDy=0;dashed=1;gradientColor=#ea6b66;fillColor=#f8cecc;entryX=0.01;entryY=0.595;entryDx=0;entryDy=0;entryPerimeter=0;exitPerimeter=0;" edge="1" parent="1" source="9Zyja6iba0x6Raa5amca-212" target="9Zyja6iba0x6Raa5amca-208">
          <mxGeometry width="50" height="50" relative="1" as="geometry">
            <mxPoint x="331.3499999999999" y="568.5900000000001" as="sourcePoint" />
            <mxPoint x="628.8900000000004" y="660.2400000000002" as="targetPoint" />
            <Array as="points" />
          </mxGeometry>
        </mxCell>
        <mxCell id="9Zyja6iba0x6Raa5amca-214" value="" style="ellipse;whiteSpace=wrap;html=1;strokeWidth=3;fontFamily=Verdana;fontSize=12;dashed=1;fillColor=none;strokeColor=#000000;" vertex="1" parent="1">
          <mxGeometry x="218.99" y="850" width="174.13" height="210" as="geometry" />
        </mxCell>
        <mxCell id="9Zyja6iba0x6Raa5amca-139" value="Bray 2003" style="rounded=1;whiteSpace=wrap;html=1;gradientColor=#ffa500;fillColor=#ffcd28;strokeColor=#d79b00;fontColor=#000000;" vertex="1" parent="1">
          <mxGeometry x="119.75" y="965" width="120" height="30" as="geometry" />
        </mxCell>
        <mxCell id="9Zyja6iba0x6Raa5amca-153" value="Ejima 2008" style="rounded=1;whiteSpace=wrap;html=1;gradientColor=#ffa500;fillColor=#ffcd28;strokeColor=#d79b00;fontColor=#000000;" vertex="1" parent="1">
          <mxGeometry x="119.75" y="905" width="120" height="30" as="geometry" />
        </mxCell>
        <mxCell id="9Zyja6iba0x6Raa5amca-205" value="Shankar S 2015" style="rounded=1;whiteSpace=wrap;html=1;gradientColor=#ffa500;fillColor=#ffcd28;strokeColor=#d79b00;fontColor=#000000;" vertex="1" parent="1">
          <mxGeometry x="119.75" y="935" width="120" height="30" as="geometry" />
        </mxCell>
        <mxCell id="9Zyja6iba0x6Raa5amca-216" value="" style="endArrow=classic;html=1;strokeWidth=2;strokeColor=#b85450;exitX=0.161;exitY=0.111;exitDx=0;exitDy=0;dashed=1;gradientColor=#ea6b66;fillColor=#f8cecc;exitPerimeter=0;entryX=0;entryY=0.5;entryDx=0;entryDy=0;" edge="1" parent="1" source="9Zyja6iba0x6Raa5amca-214" target="9Zyja6iba0x6Raa5amca-218">
          <mxGeometry width="50" height="50" relative="1" as="geometry">
            <mxPoint x="390" y="925.4600000000005" as="sourcePoint" />
            <mxPoint x="-440" y="570" as="targetPoint" />
            <Array as="points">
              <mxPoint x="-470" y="530" />
              <mxPoint x="-470" y="-365" />
            </Array>
          </mxGeometry>
        </mxCell>
        <mxCell id="9Zyja6iba0x6Raa5amca-217" value="" style="rounded=1;whiteSpace=wrap;html=1;dashed=1;strokeColor=#000000;strokeWidth=3;fillColor=none;fontFamily=Verdana;fontSize=12;fontColor=#000000;" vertex="1" parent="1">
          <mxGeometry x="-227.56" y="-750" width="477.56" height="410" as="geometry" />
        </mxCell>
        <mxCell id="9Zyja6iba0x6Raa5amca-218" value="AMMC" style="rounded=1;whiteSpace=wrap;html=1;strokeColor=#3700CC;strokeWidth=3;fillColor=#6a00ff;fontFamily=Verdana;fontSize=12;fontColor=#ffffff;" vertex="1" parent="1">
          <mxGeometry x="-256.69000000000005" y="-390" width="90" height="50" as="geometry" />
        </mxCell>
        <mxCell id="9Zyja6iba0x6Raa5amca-219" value="" style="endArrow=box;html=1;strokeWidth=4;strokeColor=#b85450;exitX=1;exitY=0.364;exitDx=0;exitDy=0;dashed=1;gradientColor=#ea6b66;fillColor=#f8cecc;entryX=0;entryY=1;entryDx=0;entryDy=0;exitPerimeter=0;endFill=0;startArrow=box;startFill=0;" edge="1" parent="1" source="9Zyja6iba0x6Raa5amca-214" target="9Zyja6iba0x6Raa5amca-1">
          <mxGeometry width="50" height="50" relative="1" as="geometry">
            <mxPoint x="399.96" y="917.9200000000005" as="sourcePoint" />
            <mxPoint x="553.5400000000009" y="679.3400000000001" as="targetPoint" />
            <Array as="points">
              <mxPoint x="790" y="650" />
            </Array>
          </mxGeometry>
        </mxCell>
        <mxCell id="9Zyja6iba0x6Raa5amca-220" value="" style="ellipse;whiteSpace=wrap;html=1;strokeColor=#3700CC;strokeWidth=5;fontFamily=Verdana;fontSize=12;fontColor=#ffffff;dashed=1;fillColor=none;rotation=25;" vertex="1" parent="1">
          <mxGeometry x="440" y="594.01" width="565.75" height="340.99" as="geometry" />
        </mxCell>
        <mxCell id="9Zyja6iba0x6Raa5amca-221" value="Maybe?" style="rounded=1;whiteSpace=wrap;html=1;strokeColor=#3700CC;strokeWidth=3;fillColor=#6a00ff;fontFamily=Verdana;fontSize=12;fontColor=#ffffff;" vertex="1" parent="1">
          <mxGeometry x="400" y="650" width="69.87" height="42.88" as="geometry" />
        </mxCell>
        <mxCell id="9Zyja6iba0x6Raa5amca-222" value="OR65a" style="ellipse;whiteSpace=wrap;html=1;rounded=1;shadow=1;comic=0;labelBackgroundColor=none;strokeWidth=2;fontFamily=Verdana;fontSize=12;align=center;" vertex="1" parent="1">
          <mxGeometry x="1550" y="1637.75" width="120" height="80" as="geometry" />
        </mxCell>
        <mxCell id="9Zyja6iba0x6Raa5amca-223" value="chronic cVA" style="rounded=0;whiteSpace=wrap;html=1;" vertex="1" parent="1">
          <mxGeometry x="1580" y="1797.75" width="60" height="40" as="geometry" />
        </mxCell>
        <mxCell id="9Zyja6iba0x6Raa5amca-224" value="" style="endArrow=classic;html=1;exitX=1;exitY=0.5;exitDx=0;exitDy=0;strokeWidth=2;strokeColor=#000000;" edge="1" parent="1" source="9Zyja6iba0x6Raa5amca-18" target="9Zyja6iba0x6Raa5amca-223">
          <mxGeometry width="50" height="50" relative="1" as="geometry">
            <mxPoint x="1441" y="1797.75" as="sourcePoint" />
            <mxPoint x="1441" y="1717.75" as="targetPoint" />
          </mxGeometry>
        </mxCell>
        <mxCell id="9Zyja6iba0x6Raa5amca-225" value="" style="endArrow=classic;html=1;exitX=0.5;exitY=0;exitDx=0;exitDy=0;entryX=0.5;entryY=1;entryDx=0;entryDy=0;strokeWidth=2;strokeColor=#000000;" edge="1" parent="1" source="9Zyja6iba0x6Raa5amca-223" target="9Zyja6iba0x6Raa5amca-222">
          <mxGeometry width="50" height="50" relative="1" as="geometry">
            <mxPoint x="1471" y="1807.75" as="sourcePoint" />
            <mxPoint x="1471" y="1727.75" as="targetPoint" />
          </mxGeometry>
        </mxCell>
        <mxCell id="9Zyja6iba0x6Raa5amca-226" value="Liu, W. 2011" style="rounded=1;whiteSpace=wrap;html=1;gradientColor=#ffa500;fillColor=#ffcd28;strokeColor=#d79b00;fontColor=#000000;" vertex="1" parent="1">
          <mxGeometry x="1639" y="1687.75" width="120" height="30" as="geometry" />
        </mxCell>
        <mxCell id="9Zyja6iba0x6Raa5amca-227" value="van der Goes van Naters 2007" style="text;whiteSpace=wrap;html=1;fontSize=12;fontFamily=Verdana;fontColor=#000000;" vertex="1" parent="1">
          <mxGeometry x="1650" y="1717.75" width="220" height="30" as="geometry" />
        </mxCell>
        <mxCell id="9Zyja6iba0x6Raa5amca-228" value="Ronderos 2010" style="text;whiteSpace=wrap;html=1;fontSize=12;fontFamily=Verdana;fontColor=#000000;" vertex="1" parent="1">
          <mxGeometry x="1650" y="1736.19" width="110" height="30" as="geometry" />
        </mxCell>
        <mxCell id="9Zyja6iba0x6Raa5amca-229" value="Ejima 2007" style="text;whiteSpace=wrap;html=1;fontSize=12;fontFamily=Verdana;fontColor=#000000;" vertex="1" parent="1">
          <mxGeometry x="1650" y="1753.94" width="90" height="30" as="geometry" />
        </mxCell>
        <mxCell id="9Zyja6iba0x6Raa5amca-251" style="edgeStyle=orthogonalEdgeStyle;rounded=0;orthogonalLoop=1;jettySize=auto;html=1;exitX=0.5;exitY=1;exitDx=0;exitDy=0;startArrow=none;startFill=0;endArrow=classicThin;endFill=1;strokeColor=#000000;strokeWidth=4;fontFamily=Verdana;fontSize=12;fontColor=#000000;" edge="1" parent="1" source="9Zyja6iba0x6Raa5amca-231" target="9Zyja6iba0x6Raa5amca-233">
          <mxGeometry relative="1" as="geometry" />
        </mxCell>
        <mxCell id="9Zyja6iba0x6Raa5amca-253" style="edgeStyle=orthogonalEdgeStyle;rounded=0;orthogonalLoop=1;jettySize=auto;html=1;exitX=0.5;exitY=1;exitDx=0;exitDy=0;entryX=0;entryY=0.5;entryDx=0;entryDy=0;dashed=1;startArrow=none;startFill=0;endArrow=classicThin;endFill=1;strokeWidth=4;fontFamily=Verdana;fontSize=12;fontColor=#000000;strokeColor=#B85450;" edge="1" parent="1" source="9Zyja6iba0x6Raa5amca-231" target="9Zyja6iba0x6Raa5amca-236">
          <mxGeometry relative="1" as="geometry" />
        </mxCell>
        <mxCell id="9Zyja6iba0x6Raa5amca-231" value="&lt;div&gt;dPR1&lt;/div&gt;&lt;div&gt;fru+ dsx+ TN2 neurons&lt;br&gt;&lt;/div&gt;" style="ellipse;whiteSpace=wrap;html=1;rounded=1;shadow=1;comic=0;labelBackgroundColor=none;strokeWidth=2;fontFamily=Verdana;fontSize=12;align=center;" vertex="1" parent="1">
          <mxGeometry x="2350" y="16.75" width="120" height="80" as="geometry" />
        </mxCell>
        <mxCell id="9Zyja6iba0x6Raa5amca-252" style="edgeStyle=orthogonalEdgeStyle;rounded=0;orthogonalLoop=1;jettySize=auto;html=1;startArrow=none;startFill=0;endArrow=classicThin;endFill=1;strokeWidth=4;fontFamily=Verdana;fontSize=12;fontColor=#000000;dashed=1;strokeColor=#B85450;" edge="1" parent="1" source="9Zyja6iba0x6Raa5amca-233" target="9Zyja6iba0x6Raa5amca-236">
          <mxGeometry relative="1" as="geometry" />
        </mxCell>
        <mxCell id="9Zyja6iba0x6Raa5amca-233" value="&lt;div&gt;vPR6&lt;/div&gt;&lt;div&gt;fru+ dsx+ TN1 neurons&lt;br&gt;&lt;/div&gt;" style="ellipse;whiteSpace=wrap;html=1;rounded=1;shadow=1;comic=0;labelBackgroundColor=none;strokeWidth=2;fontFamily=Verdana;fontSize=12;align=center;" vertex="1" parent="1">
          <mxGeometry x="2460" y="154.25" width="120" height="80" as="geometry" />
        </mxCell>
        <mxCell id="9Zyja6iba0x6Raa5amca-234" value="pulse overall" style="rounded=0;whiteSpace=wrap;html=1;strokeWidth=5;fontFamily=Verdana;fontSize=12;" vertex="1" parent="1">
          <mxGeometry x="2490" width="120" height="60" as="geometry" />
        </mxCell>
        <mxCell id="9Zyja6iba0x6Raa5amca-235" value="pulse IPI" style="rounded=0;whiteSpace=wrap;html=1;strokeWidth=5;fontFamily=Verdana;fontSize=12;" vertex="1" parent="1">
          <mxGeometry x="2590" y="136" width="120" height="60" as="geometry" />
        </mxCell>
        <mxCell id="9Zyja6iba0x6Raa5amca-236" value="&lt;div&gt;vMS11&lt;/div&gt;&lt;div&gt;fru+ dsx+ TN1 neurons&lt;br&gt;&lt;/div&gt;" style="ellipse;whiteSpace=wrap;html=1;rounded=1;shadow=1;comic=0;labelBackgroundColor=none;strokeWidth=2;fontFamily=Verdana;fontSize=12;align=center;" vertex="1" parent="1">
          <mxGeometry x="2460" y="307.25" width="120" height="80" as="geometry" />
        </mxCell>
        <mxCell id="9Zyja6iba0x6Raa5amca-237" value="vibration-less wing extension" style="rounded=0;whiteSpace=wrap;html=1;strokeWidth=5;fontFamily=Verdana;fontSize=12;" vertex="1" parent="1">
          <mxGeometry x="2650" y="281" width="120" height="60" as="geometry" />
        </mxCell>
        <mxCell id="9Zyja6iba0x6Raa5amca-238" value="Activation" style="text;html=1;strokeColor=none;fillColor=none;align=center;verticalAlign=middle;whiteSpace=wrap;rounded=0;fontFamily=Verdana;fontSize=12;fontColor=#000000;" vertex="1" parent="1">
          <mxGeometry x="2600" y="305" width="40" height="20" as="geometry" />
        </mxCell>
        <mxCell id="9Zyja6iba0x6Raa5amca-239" value="Inactivation" style="text;html=1;strokeColor=none;fillColor=none;align=center;verticalAlign=middle;whiteSpace=wrap;rounded=0;fontFamily=Verdana;fontSize=12;fontColor=#000000;" vertex="1" parent="1">
          <mxGeometry x="2590" y="384" width="40" height="20" as="geometry" />
        </mxCell>
        <mxCell id="9Zyja6iba0x6Raa5amca-241" value="monocyclic pulse into polycyclic" style="rounded=0;whiteSpace=wrap;html=1;strokeWidth=5;fontFamily=Verdana;fontSize=12;" vertex="1" parent="1">
          <mxGeometry x="2650" y="360" width="120" height="60" as="geometry" />
        </mxCell>
        <mxCell id="9Zyja6iba0x6Raa5amca-243" value="CPG (?)" style="rounded=1;whiteSpace=wrap;html=1;strokeWidth=5;fontFamily=Verdana;fontSize=12;strokeColor=none;" vertex="1" parent="1">
          <mxGeometry x="2310" y="412.75" width="110" height="47" as="geometry" />
        </mxCell>
        <mxCell id="9Zyja6iba0x6Raa5amca-244" value="vonPhilipsborn 2011" style="rounded=1;whiteSpace=wrap;html=1;gradientColor=#ffa500;fillColor=#ffcd28;strokeColor=#d79b00;fontColor=#000000;" vertex="1" parent="1">
          <mxGeometry x="2370" y="451.25" width="120" height="30" as="geometry" />
        </mxCell>
        <mxCell id="9Zyja6iba0x6Raa5amca-247" value="Wang L. 2011" style="rounded=1;whiteSpace=wrap;html=1;gradientColor=#ffa500;fillColor=#ffcd28;strokeColor=#d79b00;fontColor=#000000;" vertex="1" parent="1">
          <mxGeometry x="280" y="1185" width="120" height="30" as="geometry" />
        </mxCell>
      </root>
    </mxGraphModel>
  </diagram>
</mxfile>
